<svg width="109" height="48" viewBox="0 0 109 48" fill="none" xmlns="http://www.w3.org/2000/svg">
<g clip-path="url(#clip0_1_467)">
<path d="M27.2805 29.8668C26.5102 29.8668 25.8385 30.0171 25.2757 30.3083C24.7214 30.5939 24.0854 31.1172 23.3695 31.8838V30.3957H19.3965V47.5617H23.5593L23.5565 38.6339C23.5565 35.3617 24.4339 33.7214 26.5571 33.7214C26.9245 33.7214 27.3003 33.8032 27.6779 33.9506C28.3609 32.7716 29.1501 31.663 30.0341 30.6418C29.0825 30.1383 28.1636 29.8668 27.2805 29.8668Z" fill="#707070"/>
<path d="M101.876 38.478L107.503 30.3929H102.757L99.4977 35.0733L96.2293 30.3929H91.4079L97.0927 38.5259L90.8076 47.5618H95.5548L99.4677 41.9343L103.403 47.5618H108.227" fill="#707070"/>
<mask id="mask0_1_467" style="mask-type:luminance" maskUnits="userSpaceOnUse" x="0" y="29" width="18" height="19">
<path d="M0 29.8226H17.3164V47.9996H0V29.8226Z" fill="white"/>
</mask>
<g mask="url(#mask0_1_467)">
<path d="M11.9997 42.638C11.1448 43.5831 10.0663 44.0491 8.76697 44.0519C7.50808 44.051 6.44647 43.5709 5.58779 42.6098C4.72724 41.6506 4.29602 40.4265 4.29602 38.9421C4.29602 37.4624 4.7216 36.2552 5.56619 35.311C6.41359 34.3659 7.4752 33.9 8.7557 33.9C10.0663 33.9 11.1495 34.3641 12.0053 35.2885C12.8612 36.2186 13.1383 37.2764 13.1355 38.7721C13.1355 40.3025 12.8584 41.6966 11.9997 42.638ZM13.1026 32.2709C12.3642 31.4987 11.561 30.9162 10.692 30.5319C9.82482 30.1411 8.89004 29.9485 7.90266 29.9467C5.75032 29.9467 3.92305 30.7941 2.41519 32.4861C0.909219 34.1799 0.15858 36.351 0.155762 39.0013C0.155762 41.5576 0.931766 43.6987 2.48659 45.4151C4.04142 47.1371 5.88467 47.9996 8.01539 47.9996C8.96708 48.0014 9.85018 47.8248 10.6619 47.4735C11.4764 47.1202 12.2881 46.5462 13.097 45.743V47.5618H17.2598V30.3957H13.1026" fill="#707070"/>
</g>
<mask id="mask1_1_467" style="mask-type:luminance" maskUnits="userSpaceOnUse" x="28" y="29" width="18" height="19">
<path d="M28.1392 29.8226H45.4555V47.9996H28.1392V29.8226Z" fill="white"/>
</mask>
<g mask="url(#mask1_1_467)">
<path d="M40.0299 42.638C39.1741 43.5831 38.0937 44.0491 36.7991 44.0519C35.5374 44.051 34.4767 43.5709 33.6152 42.6098C32.7547 41.6506 32.3234 40.4265 32.3263 38.9421C32.3291 37.4624 32.749 36.2552 33.5964 35.311C34.4438 34.3659 35.5054 33.9 36.785 33.9C38.0937 33.9 39.1769 34.3641 40.0356 35.2885C40.8914 36.2186 41.1648 37.2764 41.162 38.7721C41.162 40.3025 40.8886 41.6966 40.0299 42.638ZM41.1319 32.2709C40.3945 31.4987 39.5884 30.9162 38.7241 30.5319C37.8522 30.1411 36.9231 29.9485 35.9301 29.9467C33.7824 29.9467 31.9505 30.7941 30.4454 32.4861C28.9395 34.1799 28.1879 36.351 28.1851 39.0013C28.1832 41.5576 28.9582 43.6987 30.5168 45.4151C32.0717 47.1371 33.914 47.9996 36.0475 47.9996C36.9964 48.0014 37.8804 47.8248 38.6884 47.4735C39.5038 47.1202 40.3155 46.5462 41.1235 45.743V47.5618H45.2872V30.3957H41.1319" fill="#707070"/>
</g>
<path d="M70.3355 30.8147H70.3364C69.4421 30.2463 68.4077 29.9626 67.2287 29.9626C66.0881 29.9617 65.0425 30.2266 64.0805 30.7584C63.1203 31.2863 62.3124 32.0586 61.6482 33.0798C61.1437 32.0586 60.4748 31.2835 59.6433 30.7546C58.8072 30.2229 57.8743 29.9579 56.8381 29.9542C55.8122 29.9542 54.8661 30.1552 53.9971 30.5601C53.1272 30.9613 52.338 31.5691 51.6278 32.3865V30.3957H47.4621L47.4556 47.5618H51.6193L51.6221 39.9455C51.624 38.2995 51.764 37.0923 52.044 36.3257C52.3267 35.56 52.7486 34.9663 53.3141 34.5388C53.8816 34.117 54.5091 33.9028 55.2034 33.9028C55.8225 33.9037 56.3552 34.0719 56.7939 34.4082C57.2327 34.7455 57.5587 35.2575 57.7785 35.9442C57.9974 36.6319 58.1073 37.7396 58.1073 39.2756L58.0998 47.5618H62.2673V39.8412C62.2739 38.2037 62.4101 37.0162 62.6854 36.2778C62.9616 35.5375 63.3843 34.9597 63.949 34.5388C64.5108 34.1198 65.1552 33.9112 65.8721 33.9112C66.8097 33.9112 67.5086 34.256 67.9802 34.9399C68.4518 35.6305 68.6848 36.9457 68.6848 38.8829L68.6792 47.5618H72.842L72.8476 37.5085C72.8476 35.4463 72.6532 33.9563 72.2633 33.0431C71.8743 32.1262 71.2327 31.3831 70.3355 30.8147Z" fill="#707070"/>
<mask id="mask2_1_467" style="mask-type:luminance" maskUnits="userSpaceOnUse" x="74" y="29" width="19" height="19">
<path d="M74.5566 29.8226H92.1135V47.9996H74.5566V29.8226Z" fill="white"/>
</mask>
<g mask="url(#mask2_1_467)">
<path d="M80.3599 34.6121C81.2346 33.9479 82.2511 33.6172 83.4095 33.62C84.4814 33.62 85.419 33.914 86.2222 34.505C87.0349 35.0987 87.5751 35.8653 87.8485 36.8095L78.8342 36.8039C79.3011 35.7582 79.8113 35.0254 80.3599 34.6121ZM87.3797 42.5027C86.2664 43.6451 84.9342 44.2163 83.3841 44.2163C82.0848 44.2144 81.0232 43.8462 80.1842 43.1162C79.3472 42.3862 78.8342 41.4026 78.6398 40.1634L91.9953 40.1719L92.0113 39.3545C92.0113 36.5267 91.1977 34.2532 89.563 32.5255C87.9311 30.8025 85.8079 29.9401 83.1981 29.9373C80.7404 29.9373 78.6942 30.7997 77.068 32.534C75.4371 34.2616 74.6226 36.4365 74.6226 39.0548C74.6197 41.614 75.4371 43.7381 77.0661 45.4376C78.6942 47.1399 80.8118 47.9883 83.4066 47.9883C85.0789 47.9902 86.521 47.683 87.7414 47.0667C88.957 46.4532 90.0017 45.4996 90.8736 44.2163" fill="#707070"/>
</g>
<path d="M100.271 18.5198H104.951V-0.000976562H100.271V18.5198Z" fill="#707070"/>
<path d="M92.9157 22.8564C93.9434 22.3294 94.8265 21.5778 95.4062 20.457C96.2499 18.8364 96.4218 17.5841 96.4218 15.7775V4.13837H91.7291L91.716 14.2884C91.716 15.8442 91.7686 17.8866 90.5294 19.0206C90.0813 19.4161 89.5411 19.6932 88.9736 19.8774L91.7554 23.344C92.1509 23.1993 92.5464 23.0415 92.9157 22.8564Z" fill="#707070"/>
<path d="M83.1611 18.5198H87.8406V-0.000976562H83.1611V18.5198Z" fill="#707070"/>
<path d="M72.918 14.4463C72.0481 14.4463 71.3237 14.1306 70.73 13.5237C70.1372 12.9036 69.8337 12.1135 69.8337 11.1506C69.8337 10.2017 70.124 9.41068 70.7037 8.80472C71.2843 8.19876 72.0218 7.89531 72.9049 7.88216C73.7889 7.88216 74.5132 8.18467 75.0938 8.80472C75.6735 9.41068 75.9638 10.2017 75.9638 11.1506C75.9769 12.1004 75.6866 12.9036 75.0938 13.5237C74.5001 14.1306 73.7757 14.4463 72.918 14.4463ZM78.0729 16.2914C79.3647 14.9338 80.0101 13.2334 80.0101 11.19C80.0101 9.08187 79.391 7.35418 78.1387 6.00979C75.6866 3.34733 70.6116 3.38678 68.0281 5.95718C66.4986 7.48664 65.7602 9.06778 65.7602 11.19V11.5856C65.7602 11.8496 65.7733 12.0732 65.7602 12.2977C65.7339 13.0361 65.6549 13.379 65.1148 13.9192C64.6403 14.3936 64.0071 14.3936 63.3485 14.3936H62.9136C62.4654 12.9309 61.7007 11.3225 60.5931 10.2675C58.8532 8.6065 56.652 7.76285 53.8965 7.76285H44.9067C45.2101 6.80083 45.7898 5.82566 46.6597 5.16615C47.556 4.48127 48.5584 4.23043 49.6651 4.19097H57.6403V0.434021H49.6651C46.95 0.526089 44.7094 1.39604 42.9686 3.07018C41.1234 4.83639 40.2009 7.60502 40.2009 10.5052L40.214 11.3883H53.9097C55.0173 11.4277 55.9925 11.7443 56.8493 12.3108C57.7596 12.9177 58.1805 13.9981 58.1805 14.3936H35.9037C36.1668 13.4053 36.3124 12.0337 36.3124 10.2806V4.17782H31.6197V8.77842C31.6197 9.7799 31.6056 11.9942 31.3689 12.9703C31.1312 13.9324 30.7103 14.42 29.5895 14.42H27.269C27.5462 13.4316 27.6777 12.0478 27.6777 10.2806V4.17782H22.985V8.77842C22.985 9.7799 22.9719 11.9942 22.7342 12.9703C22.4974 13.9324 22.0888 14.42 20.9548 14.42H19.0045V4.17782H14.3118V14.3147C14.3118 15.8696 14.3644 17.9129 13.1121 19.0469C11.53 20.4843 8.76235 20.4439 7.03559 19.3898C5.058 18.1638 4.55632 15.7117 4.82032 13.55C4.93869 12.6537 5.17638 11.8627 5.54559 11.19L0.905533 9.68783C0.549472 10.5578 0.28548 11.533 0.127649 12.6011C-0.873829 19.4292 4.09504 25.2427 12.3079 23.8851C12.4 23.872 12.4921 23.8447 12.5841 23.8316C14.7994 23.3835 16.9085 22.553 17.9758 20.4843C18.345 19.759 18.5958 19.1915 18.7405 18.533H20.9548C21.6933 18.533 22.2861 18.4804 22.8272 18.3479C23.5252 18.1769 24.211 17.9261 24.8442 17.5437C25.0152 17.4385 25.1731 17.3333 25.3187 17.2149V18.533H29.5764C30.3148 18.533 30.9076 18.4804 31.4478 18.3479C32.1599 18.1769 32.8448 17.9261 33.4517 17.5437L33.649 17.4122V18.533H62.3724C63.4801 18.533 64.5746 18.533 65.6418 18.1901C66.1425 18.0322 66.6442 17.7814 67.0923 17.5042C67.4747 17.2675 67.8035 17.0035 68.0938 16.701C70.0047 18.3742 72.918 18.8355 75.3306 18.0059C76.3856 17.6367 77.3213 17.0965 78.0729 16.2914Z" fill="#707070"/>
</g>
<defs>
<clipPath id="clip0_1_467">
<rect width="108.227" height="48" fill="white"/>
</clipPath>
</defs>
</svg>
