<svg width="114" height="48" viewBox="0 0 114 48" fill="none" xmlns="http://www.w3.org/2000/svg">
<g clip-path="url(#clip0_1_504)">
<path d="M113.668 34.0951L110.903 10.9508C110.16 4.71947 104.885 0.0187988 98.6343 0.0187988H72.2289C65.9782 0.0187988 60.7037 4.71947 59.9599 10.9508L57.1981 34.0951C56.7779 37.6154 57.8797 41.1559 60.2242 43.8076C62.5659 46.4613 65.9355 47.981 69.4671 47.981H101.399C104.928 47.981 108.297 46.4613 110.642 43.8076C112.983 41.1566 114.088 37.6161 113.668 34.0951ZM106.095 39.7855C104.84 41.2053 103.108 41.9863 101.221 41.9863H69.6461C67.7559 41.9863 66.0237 41.2053 64.7723 39.7855C63.5173 38.3659 62.9528 36.5474 63.1765 34.6629L65.9073 11.7781C66.2994 8.49422 69.0806 6.01372 72.3768 6.01372H98.4871C101.782 6.01372 104.564 8.49347 104.956 11.7781L107.69 34.6629C107.914 36.5474 107.346 38.3659 106.095 39.7855Z" fill="#707070"/>
<path d="M101.297 26.9908C100.863 26.3217 100.195 25.8626 99.4164 25.6982C98.6366 25.5335 97.8424 25.6835 97.1758 26.1194C89.2255 31.3262 81.4883 31.3254 73.5229 26.1186C72.8563 25.6828 72.06 25.5328 71.2823 25.6989C70.5039 25.864 69.8369 26.3238 69.4029 26.993C68.9688 27.6623 68.8202 28.4613 68.9849 29.243C69.1493 30.0246 69.6072 30.6945 70.2735 31.1303C75.2513 34.3845 80.3258 36.034 85.3562 36.034C90.3875 36.034 95.4582 34.3838 100.429 31.1289C101.095 30.6923 101.552 30.0218 101.716 29.2401C101.881 28.4591 101.732 27.6602 101.297 26.9908Z" fill="#707070"/>
<path d="M47.1337 14.4964L44.309 15.4738C44.6173 16.4752 44.9971 17.905 44.9971 18.7389C44.9971 19.6445 44.4273 20.1926 43.3356 20.1926C42.2202 20.1926 41.5558 19.9302 41.5558 18.4524V15.9024H38.5653V18.4524C38.5653 19.9302 37.9009 20.1926 36.7138 20.1926C35.5506 20.1926 34.8865 19.9302 34.8865 18.4524V15.9024H31.872V18.4285C31.872 19.9302 31.0647 20.1919 29.3325 20.1919C27.5527 20.1919 26.9354 19.8344 26.9354 17.8796V6.94116H23.7786V18.0479C23.7786 19.8591 23.1613 20.1926 21.3822 20.1926H21.3815C19.9807 20.1926 19.1511 19.9077 19.1511 18.1196V9.91975H16.1835V11.6135C10.5582 12.7795 8.5415 15.1396 8.5415 18.0957C8.5415 20.9068 10.3921 22.7195 13.0976 22.7195C15.1164 22.7195 16.1351 21.6943 16.5872 20.3115C16.9908 22.7666 18.4125 24.1951 21.1872 24.1966L21.1916 24.1973C23.3042 24.1973 24.4905 23.2437 24.9888 21.79C25.6061 23.4105 27.0061 24.1973 29.142 24.1973C31.1115 24.1973 32.3933 23.4823 32.8913 22.0046C33.3896 23.5062 34.5767 24.1973 36.2619 24.1973C37.9472 24.1973 39.1104 23.4823 39.5846 21.9807C40.0829 23.4823 41.2939 24.1973 43.2398 24.1973C46.1827 24.1973 47.9864 22.2663 47.9864 18.7628C47.9878 17.4758 47.6317 15.7117 47.1337 14.4964ZM16.1843 18.0232C15.7106 18.4046 14.8073 18.6917 13.4781 18.6917C12.2672 18.6917 11.0578 18.3589 11.0578 17.5476C11.0578 16.6644 12.3149 15.7835 16.1835 15.1396V18.0232H16.1843Z" fill="#707070"/>
<path d="M17.7857 9.18016C18.7489 9.18016 19.5417 8.47828 19.5417 7.49217C19.5417 6.44951 18.7107 5.8042 17.7857 5.8042C16.8225 5.8042 16.0103 6.46763 16.0103 7.49217C16.0103 8.53557 16.8789 9.18016 17.7857 9.18016Z" fill="#707070"/>
<path d="M13.817 9.18016C14.7802 9.18016 15.573 8.47828 15.573 7.49217C15.573 6.44951 14.7419 5.8042 13.817 5.8042C12.8538 5.8042 12.0415 6.46763 12.0415 7.49217C12.0415 8.53557 12.9101 9.18016 13.817 9.18016Z" fill="#707070"/>
<path d="M0.0375977 41.2617L0.504755 38.7132C1.41813 39.3657 3.0427 39.9566 4.40231 39.9566C5.57995 39.9566 6.27021 39.5695 6.27021 38.9169C6.27021 37.1433 0.139404 38.7943 0.139404 34.4932C0.139404 32.2507 1.98709 30.7831 4.97126 30.7831C6.57491 30.7831 8.05724 31.2319 9.11285 31.7822L8.60528 34.2693C7.6103 33.7392 6.35181 33.2498 5.13373 33.2498C4.01746 33.2498 3.3272 33.6775 3.3272 34.2895C3.3272 36.1449 9.45798 34.5549 9.45798 38.5704C9.45798 40.7724 7.36698 42.3211 4.281 42.3211C2.43331 42.3218 0.95097 41.7715 0.0375977 41.2617Z" fill="#707070"/>
<path d="M19.7291 31.1501H22.9364V42.0158H19.7291V40.2221C18.8562 41.5265 17.6179 42.2813 16.0142 42.2813C13.2936 42.2813 10.6748 40.3447 10.6748 36.5729C10.6748 32.801 13.1716 30.8237 16.0142 30.8237C17.5977 30.8237 18.836 31.4145 19.7291 32.5973V31.1501ZM19.7291 36.5323C19.1407 34.5137 17.963 33.4949 16.6229 33.4949C15.1817 33.4949 14.0647 34.5751 14.0647 36.5323C14.0647 38.4689 15.2012 39.6108 16.6431 39.6108C18.0446 39.6101 19.2013 38.3666 19.7291 36.5323Z" fill="#707070"/>
<path d="M25.2915 42.0158V27.684H28.4988V42.0158H25.2915Z" fill="#707070"/>
<path d="M30.854 42.0158V27.684H34.0613V42.0158H30.854Z" fill="#707070"/>
<path d="M44.9425 31.1501H48.1498V42.0158H44.9425V40.2221C44.0697 41.5265 42.8312 42.2813 41.2275 42.2813C38.5071 42.2813 35.8882 40.3447 35.8882 36.5729C35.8882 32.801 38.385 30.8237 41.2275 30.8237C42.8111 30.8237 44.0493 31.4145 44.9425 32.5973V31.1501ZM44.9425 36.5323C44.3541 34.5137 43.1765 33.4949 41.8363 33.4949C40.3951 33.4949 39.2781 34.5751 39.2781 36.5323C39.2781 38.4689 40.4147 39.6108 41.8566 39.6108C43.2573 39.6101 44.4148 38.3666 44.9425 36.5323Z" fill="#707070"/>
</g>
<defs>
<clipPath id="clip0_1_504">
<rect width="114" height="48" fill="white"/>
</clipPath>
</defs>
</svg>
