<svg width="123" height="48" viewBox="0 0 123 48" fill="none" xmlns="http://www.w3.org/2000/svg">
<g clip-path="url(#clip0_1_445)">
<path d="M0.610354 4.51664C0.207734 5.40655 0.0027331 6.36137 0.00136644 6.94746C-0.000273563 7.53355 0.0109332 7.73646 0.0286999 7.9361C0.0300665 7.95055 0.0325268 7.96473 0.0338935 7.97919C0.271967 10.5123 1.79197 12.2594 3.25759 13.5322C4.7232 14.805 6.43153 15.825 7.93569 16.7422C8.42987 17.0436 8.89563 17.3346 9.27912 17.6046C9.66261 17.8746 9.8482 18.2583 9.84847 18.6641C9.84875 19.4007 9.24987 19.998 8.5116 19.998H0V26.6681H12.0327C15.2771 26.6681 18.2035 24.8817 19.4441 22.1395C19.8467 21.2495 20.0517 20.2947 20.0531 19.7086C20.0547 19.1226 20.0435 18.9196 20.0258 18.72C20.0244 18.7055 20.0219 18.6914 20.0206 18.6769C19.7825 16.1438 18.2625 14.3967 16.7969 13.1239C15.3313 11.8511 13.6229 10.8311 12.1188 9.91391C11.6246 9.61255 11.1588 9.32155 10.7753 9.05155C10.3919 8.78155 10.2063 8.39782 10.206 7.992C10.2057 7.25537 10.8046 6.65809 11.5429 6.65809H24.0651V26.6681H32.0869V6.65809H37.4346V26.6681H45.4564V6.65809H48.1305C49.6073 6.65809 50.8045 7.25537 50.8045 7.992V26.6678H58.8263V6.65782C58.8263 2.9741 55.2349 -0.0122681 50.8045 -0.0122681H8.02179C4.77732 -0.0119953 1.85101 1.77464 0.610354 4.51664Z" fill="#707070"/>
<path d="M70.8586 -0.0117188C67.6141 -0.0117188 64.6878 1.77437 63.4471 4.51665C63.0445 5.40656 62.8395 6.36137 62.8382 6.94746C62.8365 7.53355 62.8477 7.73646 62.8655 7.9361C62.8669 7.95055 62.8693 7.96474 62.8707 7.97919C63.1088 10.5123 64.6288 12.2594 66.0944 13.5322C67.56 14.805 69.2683 15.825 70.7725 16.7422C71.2667 17.0436 71.7324 17.3346 72.1159 17.6046C72.4994 17.8746 72.685 18.2586 72.6853 18.6644C72.6855 19.401 72.0867 19.9983 71.3484 19.9983H58.8262V26.6684H74.8697C78.1142 26.6684 81.0405 24.8823 82.2812 22.14C82.6838 21.2501 82.8888 20.2953 82.8902 19.7092C82.8915 19.1231 82.8806 18.9202 82.8628 18.7206C82.8615 18.7061 82.859 18.6919 82.8576 18.6775C82.6196 16.1444 81.0996 14.3973 79.6339 13.1245C78.1683 11.8516 76.46 10.8316 74.9558 9.91446C74.4617 9.6131 73.9959 9.3221 73.6124 9.0521C73.2289 8.7821 73.0433 8.3981 73.0431 7.99228C73.0428 7.25564 73.6417 6.65837 74.3799 6.65837H89.9834C88.004 8.8571 86.9068 11.7068 86.9022 14.6624C86.9022 21.2932 92.2893 26.6684 98.9348 26.6684C101.897 26.6632 104.753 25.5682 106.957 23.5926V26.6684H114.978V-0.0114483L70.8586 -0.0117188ZM96.2608 6.6581H106.956V17.3299L103.614 13.995L98.6005 18.9974L94.2554 14.6618L99.2688 9.65946L96.2608 6.6581Z" fill="#707070"/>
<path d="M117.652 24.0821C117.652 22.5393 118.905 21.498 120.326 21.498C121.749 21.498 123 22.5393 123 24.0821C123 25.6249 121.749 26.6673 120.326 26.6673C118.905 26.6673 117.652 25.6249 117.652 24.0821ZM120.34 23.7903C120.795 23.7903 120.924 23.5527 120.924 23.3452C120.924 23.0953 120.795 22.9012 120.34 22.9012H119.759V23.7903H120.34ZM119.759 24.192V25.6104H119.289V22.4836H120.455C121.136 22.4836 121.451 22.7754 121.451 23.3449C121.451 23.6934 121.208 23.9722 120.897 24.012V24.0253C121.165 24.0676 121.265 24.3052 121.323 24.7358C121.366 25.0121 121.422 25.4994 121.522 25.6104H120.967C120.839 25.3186 120.853 24.9022 120.754 24.5547C120.669 24.2904 120.526 24.1917 120.214 24.1917L119.759 24.192ZM122.488 24.0821C122.488 22.8311 121.579 21.9142 120.326 21.9142C119.074 21.9142 118.165 22.8311 118.165 24.0821C118.165 25.3331 119.075 26.2489 120.326 26.2489C121.579 26.2489 122.488 25.3331 122.488 24.0821Z" fill="#707070"/>
<path d="M58.826 44.6861V32.0037H66.0974V32.9498H60.0251V37.6257H65.8402V38.5718H60.0251V43.7365H66.3683V44.6842H58.8257L58.826 44.6861Z" fill="#707070"/>
<path d="M67.2363 44.6861L70.7823 40.1315L67.4192 35.8232H68.7823L71.5277 39.3433L74.2178 35.8232H75.5809L72.1643 40.1315L75.7258 44.6861H74.3455L71.4 40.9181L68.6011 44.6861H67.2363Z" fill="#707070"/>
<path d="M78.0336 48.0117H76.9241V38.4687C76.9241 37.5925 76.9241 36.7012 76.8689 35.8233H77.9611L77.9975 37.1553C78.686 36.1028 79.5954 35.6138 80.9604 35.6138C83.7954 35.6138 85.012 37.872 85.012 40.2532C85.012 42.6376 83.7954 44.8958 80.9604 44.8958C79.687 44.8958 78.6879 44.4235 78.0338 43.4059L78.0336 48.0117ZM83.8315 40.2532C83.8315 38.3626 83.0118 36.5051 80.8325 36.5051C78.779 36.5051 78.0336 38.1346 78.0336 40.2532C78.0336 42.3734 78.779 44.0013 80.8325 44.0013C83.0134 44.0013 83.8315 42.1454 83.8315 40.2532Z" fill="#707070"/>
<path d="M90.713 36.645C88.877 36.645 88.2385 38.1349 88.2385 39.6747V44.6864H87.129V38.4308C87.129 37.5728 87.1118 36.6998 87.0754 35.8235H88.1696L88.2404 37.1023C88.7857 36.0881 89.6967 35.6141 90.9133 35.6141C91.0773 35.6141 91.2585 35.6307 91.4223 35.649V36.7181C91.167 36.6799 90.9666 36.645 90.713 36.645Z" fill="#707070"/>
<path d="M92.7802 40.446C92.7802 42.4413 93.7603 44.0875 95.7775 44.0875C97.3391 44.0875 98.0675 43.0898 98.34 42.0922H99.3943C98.9026 43.9478 97.7204 44.8956 95.6308 44.8956C92.8318 44.8956 91.5947 42.8986 91.5947 40.4127C91.5947 37.8736 92.8854 35.6138 95.7759 35.6138C98.7025 35.6138 99.4842 38.0815 99.4842 40.446H92.7802ZM92.8149 39.6412H98.304C98.304 37.9069 97.4514 36.4186 95.7051 36.4186C94.1244 36.4186 93.0322 37.5728 92.8149 39.6412Z" fill="#707070"/>
<path d="M103.814 44.8958C101.924 44.8958 100.507 44.0362 100.507 42.0924H101.617C101.617 43.4225 102.525 44.0877 103.87 44.0877C105.125 44.0877 106.105 43.509 106.105 42.3218C106.105 41.2527 104.961 40.9715 103.762 40.6391C102.309 40.2368 100.726 39.7977 100.726 38.0817C100.726 36.1745 102.379 35.6141 103.925 35.6141C105.704 35.6141 107.033 36.2776 107.087 38.1166H105.977C105.924 37.0674 105.142 36.4721 103.96 36.4721C103.033 36.4721 101.907 36.8212 101.907 37.977C101.907 39.0294 103.033 39.3273 104.233 39.6414C105.689 40.0254 107.287 40.4463 107.287 42.1639C107.286 44.1592 105.688 44.8958 103.814 44.8958Z" fill="#707070"/>
<path d="M111.503 44.8958C109.612 44.8958 108.195 44.0362 108.195 42.0924H109.305C109.305 43.4225 110.212 44.0877 111.56 44.0877C112.814 44.0877 113.794 43.509 113.794 42.3218C113.794 41.2527 112.648 40.9715 111.449 40.6391C109.996 40.2368 108.416 39.7977 108.416 38.0817C108.416 36.1745 110.069 35.6141 111.615 35.6141C113.394 35.6141 114.723 36.2776 114.776 38.1166H113.667C113.613 37.0674 112.831 36.4721 111.649 36.4721C110.723 36.4721 109.596 36.8212 109.596 37.977C109.596 39.0294 110.723 39.3273 111.924 39.6414C113.378 40.0254 114.978 40.4463 114.978 42.1639C114.975 44.1592 113.375 44.8958 111.503 44.8958Z" fill="#707070"/>
</g>
<defs>
<clipPath id="clip0_1_445">
<rect width="123" height="48" fill="white"/>
</clipPath>
</defs>
</svg>
