<svg width="80" height="48" viewBox="0 0 80 48" fill="none" xmlns="http://www.w3.org/2000/svg">
<g clip-path="url(#clip0_1_458)">
<path d="M7.42458 0H72.5429C76.6639 0 80 3.34913 80 7.48629V32.4406C80 36.5778 76.6639 39.9269 72.5429 39.9269H49.1906L52.3958 47.8072L38.2994 39.9269H7.45729C3.33629 39.9269 0.00023845 36.5778 0.00023845 32.4406V7.48629C-0.0324679 3.38197 3.30358 0 7.42458 0Z" fill="#707070"/>
<path d="M4.55574 6.82342C5.01102 6.20311 5.69395 5.87663 6.60452 5.81134C8.26305 5.68075 9.20614 6.46429 9.43378 8.16198C10.4419 14.9854 11.5476 20.7641 12.7183 25.498L19.8403 11.8838C20.4907 10.6432 21.3037 9.99026 22.2793 9.92497C23.7102 9.82702 24.5883 10.7412 24.946 12.6674C25.759 17.0096 26.7996 20.6988 28.0354 23.833C28.8809 15.5404 30.3118 9.56584 32.3281 5.87663C32.8159 4.96249 33.5314 4.50542 34.4744 4.44013C35.2224 4.37483 35.9053 4.60337 36.5232 5.09308C37.1411 5.5828 37.4663 6.20311 37.5313 6.95401C37.5639 7.54167 37.4663 8.03139 37.2061 8.52111C35.9379 10.8718 34.8972 14.8221 34.0517 20.307C33.2387 25.6286 32.946 29.7749 33.1411 32.7458C33.2061 33.562 33.0761 34.2803 32.7509 34.9006C32.3606 35.6188 31.7753 36.0106 31.0273 36.0759C30.1818 36.1412 29.3037 35.7494 28.4582 34.8679C25.4338 31.7664 23.0273 27.1304 21.2712 20.9599C19.1574 25.1389 17.5964 28.2731 16.5883 30.3625C14.6696 34.0517 13.0435 35.9453 11.6777 36.0432C10.7996 36.1085 10.0517 35.3576 9.40126 33.7905C7.74273 29.5137 5.95411 21.2538 4.03541 9.01083C3.90533 8.16198 4.10045 7.41108 4.55574 6.82342ZM74.4419 11.9491C73.2712 9.89232 71.5476 8.6517 69.2387 8.16198C68.6208 8.03139 68.0354 7.9661 67.4826 7.9661C64.3606 7.9661 61.824 9.59849 59.8403 12.8633C58.1492 15.6383 57.3037 18.7072 57.3037 22.07C57.3037 24.5839 57.824 26.7386 58.8647 28.5342C60.0354 30.5911 61.759 31.8317 64.0679 32.3214C64.6858 32.452 65.2712 32.5173 65.824 32.5173C68.9785 32.5173 71.5151 30.8849 73.4663 27.6201C75.1574 24.8124 76.0029 21.7435 76.0029 18.3808C76.0354 15.8342 75.4826 13.7121 74.4419 11.9491ZM70.3444 20.9926C69.8891 23.1473 69.0761 24.7471 67.8728 25.8245C66.9297 26.6733 66.0517 27.0324 65.2387 26.8692C64.4582 26.706 63.8078 26.0204 63.32 24.7471C62.9297 23.735 62.7346 22.7229 62.7346 21.7761C62.7346 20.9599 62.7996 20.1437 62.9622 19.3928C63.2549 18.0543 63.8078 16.7484 64.6858 15.5077C65.759 13.908 66.8972 13.255 68.0679 13.4836C68.8484 13.6468 69.4988 14.3324 69.9866 15.6057C70.3769 16.6178 70.572 17.6299 70.572 18.5766C70.572 19.4255 70.507 20.2417 70.3444 20.9926ZM54.0842 11.9491C52.9135 9.89232 51.1574 8.6517 48.8809 8.16198C48.2631 8.03139 47.6777 7.9661 47.1248 7.9661C44.0029 7.9661 41.4663 9.59849 39.4826 12.8633C37.7915 15.6383 36.946 18.7072 36.946 22.07C36.946 24.5839 37.4663 26.7386 38.507 28.5342C39.6777 30.5911 41.4013 31.8317 43.7102 32.3214C44.3281 32.452 44.9135 32.5173 45.4663 32.5173C48.6208 32.5173 51.1574 30.8849 53.1086 27.6201C54.7996 24.8124 55.6452 21.7435 55.6452 18.3808C55.6452 15.8342 55.1248 13.7121 54.0842 11.9491ZM49.9541 20.9926C49.4988 23.1473 48.6858 24.7471 47.4826 25.8245C46.5395 26.6733 45.6614 27.0324 44.8484 26.8692C44.0679 26.706 43.4175 26.0204 42.9297 24.7471C42.5395 23.735 42.3444 22.7229 42.3444 21.7761C42.3444 20.9599 42.4094 20.1437 42.572 19.3928C42.8647 18.0543 43.4175 16.7484 44.2956 15.5077C45.3688 13.908 46.507 13.255 47.6777 13.4836C48.4582 13.6468 49.1086 14.3324 49.5964 15.6057C49.9866 16.6178 50.1818 17.6299 50.1818 18.5766C50.2143 19.4255 50.1167 20.2417 49.9541 20.9926Z" fill="#0F1217"/>
</g>
<defs>
<clipPath id="clip0_1_458">
<rect width="80" height="48" fill="white"/>
</clipPath>
</defs>
</svg>
