<svg width="82" height="48" viewBox="0 0 82 48" fill="none" xmlns="http://www.w3.org/2000/svg">
<path d="M4.25984 20.452C4.89451 20.34 5.63184 20.284 6.47184 20.284C8.61851 20.284 10.3545 20.9747 11.6798 22.356C12.8558 23.6067 13.4438 25.156 13.4438 27.004V30.42C13.4438 31.2973 13.1265 32.0347 12.4918 32.632C11.9132 33.2107 11.2225 33.5 10.4198 33.5H1.43184V30.644H9.32784C9.79451 30.644 10.0278 30.4107 10.0278 29.944V27.34C10.0278 26.052 9.63584 25.016 8.85184 24.232C8.12384 23.504 7.06918 23.112 5.68784 23.056C5.05318 23.056 4.57718 23.0933 4.25984 23.168V20.452ZM21.9117 14.46C22.4157 14.46 22.845 14.6373 23.1997 14.992C23.5543 15.3467 23.7317 15.776 23.7317 16.28C23.7317 16.7653 23.5543 17.1853 23.1997 17.54C22.845 17.8947 22.4157 18.072 21.9117 18.072C21.4077 18.072 20.9783 17.904 20.6237 17.568C20.2877 17.2133 20.1197 16.784 20.1197 16.28C20.1197 15.776 20.2877 15.3467 20.6237 14.992C20.9783 14.6373 21.4077 14.46 21.9117 14.46ZM23.6197 20.62V32.828C23.6197 35.18 22.8823 37 21.4077 38.288C20.4743 39.128 19.261 39.6973 17.7677 39.996C17.2263 40.108 16.5917 40.164 15.8637 40.164C15.621 40.164 15.2943 40.1453 14.8837 40.108L13.5117 38.4V37.196C14.109 37.2893 14.6877 37.336 15.2477 37.336C18.5517 37.336 20.2037 35.7307 20.2037 32.52V20.62H23.6197Z" fill="#707070"/>
<g clip-path="url(#clip0_1_462)">
<path fill-rule="evenodd" clip-rule="evenodd" d="M57.9989 4.2921C56.7653 4.2921 55.7739 5.28345 55.7739 6.51706C55.7739 9.01764 56.563 11.4404 57.9989 13.4498C59.4348 11.4404 60.2238 9.01542 60.2238 6.51706C60.2238 5.28345 59.2325 4.2921 57.9989 4.2921ZM60.964 16.6439C63.2512 13.7832 64.516 10.2135 64.516 6.51706C64.516 2.82065 61.6042 0 57.9989 0C54.3936 0 51.4818 2.91401 51.4818 6.51706C51.4818 10.1201 52.7488 13.7854 55.0338 16.6439L50.6439 21.0338C47.7832 18.7466 44.2135 17.4818 40.5171 17.4818C36.8207 17.4818 34 20.3958 34 23.9989C34 27.6019 36.914 30.516 40.5171 30.516C44.1201 30.516 47.7854 29.249 50.6439 26.964L55.0338 31.3539C52.7466 34.2146 51.4818 37.7843 51.4818 41.4807C51.4818 45.1771 54.3958 47.9978 57.9989 47.9978C61.6019 47.9978 64.516 45.0838 64.516 41.4807C64.516 37.8777 63.249 34.2124 60.964 31.3539L65.3539 26.964C68.2146 29.2512 71.7843 30.516 75.4807 30.516C79.1771 30.516 81.9978 27.6019 81.9978 23.9989C81.9978 20.3958 79.0838 17.4818 75.4807 17.4818C71.8777 17.4818 68.2124 18.7488 65.3539 21.0338L60.964 16.6439ZM57.9989 19.7512L53.749 24.0011L57.9989 28.251L62.2488 24.0011L57.9989 19.7512ZM68.548 23.9989C70.5574 25.4348 72.9824 26.2238 75.4807 26.2238C76.7143 26.2238 77.7057 25.2325 77.7057 23.9989C77.7057 22.7653 76.7143 21.7739 75.4807 21.7739C72.9801 21.7739 70.5574 22.563 68.548 23.9989ZM57.9989 34.548C56.563 36.5574 55.7739 38.9824 55.7739 41.4807C55.7739 42.7143 56.7653 43.7057 57.9989 43.7057C59.2325 43.7057 60.2238 42.7143 60.2238 41.4807C60.2238 38.9801 59.4348 36.5574 57.9989 34.548ZM47.4498 23.9989C45.4404 22.563 43.0154 21.7739 40.5171 21.7739C39.2834 21.7739 38.2921 22.7653 38.2921 23.9989C38.2921 25.2325 39.2834 26.2238 40.5171 26.2238C43.0176 26.2238 45.4404 25.4348 47.4498 23.9989Z" fill="#707070"/>
</g>
<defs>
<clipPath id="clip0_1_462">
<rect width="48" height="48" fill="white" transform="translate(34)"/>
</clipPath>
</defs>
</svg>
