<svg width="30" height="30" viewBox="0 0 30 30" fill="none" xmlns="http://www.w3.org/2000/svg">
<g clip-path="url(#clip0_80_1855)">
<circle cx="15" cy="15" r="15" fill="#D9D9D9"/>
<mask id="mask0_80_1855" style="mask-type:luminance" maskUnits="userSpaceOnUse" x="-16" y="0" width="61" height="30">
<path d="M-15.6523 0V30H44.3477V0H-15.6523Z" fill="white"/>
</mask>
<g mask="url(#mask0_80_1855)">
<path d="M-15.6523 0V30H44.3477V0H-15.6523Z" fill="#012169"/>
<path d="M-15.6523 0L44.3477 30L-15.6523 0ZM44.3477 0L-15.6523 30L44.3477 0Z" fill="black"/>
<path d="M-15.6523 0L44.3477 30M44.3477 0L-15.6523 30" stroke="white" stroke-width="6"/>
<mask id="mask1_80_1855" style="mask-type:luminance" maskUnits="userSpaceOnUse" x="-16" y="0" width="61" height="30">
<path d="M14.3477 15H44.3477V30L14.3477 15ZM14.3477 15V30H-15.6523L14.3477 15ZM14.3477 15H-15.6523V0L14.3477 15ZM14.3477 15V0H44.3477L14.3477 15Z" fill="white"/>
</mask>
<g mask="url(#mask1_80_1855)">
<path d="M-15.6523 0L44.3477 30L-15.6523 0ZM44.3477 0L-15.6523 30L44.3477 0Z" fill="black"/>
<path d="M-15.6523 0L44.3477 30M44.3477 0L-15.6523 30" stroke="#C8102E" stroke-width="4"/>
</g>
<path d="M14.3477 0V30V0ZM-15.6523 15H44.3477H-15.6523Z" fill="black"/>
<path d="M14.3477 0V30M-15.6523 15H44.3477" stroke="white" stroke-width="10"/>
<path d="M14.3477 0V30V0ZM-15.6523 15H44.3477H-15.6523Z" fill="black"/>
<path d="M14.3477 0V30M-15.6523 15H44.3477" stroke="#C8102E" stroke-width="6"/>
</g>
</g>
<defs>
<clipPath id="clip0_80_1855">
<rect width="30" height="30" rx="15" fill="white"/>
</clipPath>
</defs>
</svg>
