<svg width="28" height="21" viewBox="0 0 28 21" fill="none" xmlns="http://www.w3.org/2000/svg">
<g clip-path="url(#clip0_1_1199)">
<path d="M6.31523 20.8459V10.1099L2.98568 7.06387L0 5.37354V18.9512C0 19.9995 0.849346 20.8459 1.89461 20.8459H6.31523Z" fill="white"/>
<path d="M21.4717 20.8457H25.8923C26.9407 20.8457 27.7869 19.9963 27.7869 18.9511V5.37354L24.4052 7.30961L21.4717 10.1098V20.8457Z" fill="white"/>
<path d="M6.31561 10.1096L5.86255 5.91479L6.31561 1.8999L13.8938 7.58363L21.4721 1.8999L21.9789 5.69803L21.4721 10.1096L13.8938 15.7934L6.31561 10.1096Z" fill="white"/>
<path d="M21.4717 1.8999V10.1096L27.7869 5.37326V2.84715C27.7869 0.504256 25.1124 -0.831362 23.2401 0.573723L21.4717 1.8999Z" fill="white"/>
<path d="M0 5.37331L2.90449 7.55176L6.31523 10.1097V1.89995L4.54685 0.573773C2.67123 -0.83142 0 0.504305 0 2.84709V5.37331Z" fill="white"/>
</g>
<defs>
<clipPath id="clip0_1_1199">
<rect width="27.7869" height="20.9487" fill="white"/>
</clipPath>
</defs>
</svg>
