<svg width="21" height="21" viewBox="0 0 21 21" fill="none" xmlns="http://www.w3.org/2000/svg">
<path d="M10.2325 4.98328C7.32943 4.98328 4.98785 7.32487 4.98785 10.2279C4.98785 13.1309 7.32943 15.4725 10.2325 15.4725C13.1355 15.4725 15.4771 13.1309 15.4771 10.2279C15.4771 7.32487 13.1355 4.98328 10.2325 4.98328ZM10.2325 13.6376C8.35644 13.6376 6.82277 12.1085 6.82277 10.2279C6.82277 8.34731 8.35188 6.81821 10.2325 6.81821C12.113 6.81821 13.6421 8.34731 13.6421 10.2279C13.6421 12.1085 12.1085 13.6376 10.2325 13.6376ZM16.9149 4.76875C16.9149 5.44886 16.3671 5.99204 15.6916 5.99204C15.0115 5.99204 14.4683 5.4443 14.4683 4.76875C14.4683 4.09321 15.016 3.54547 15.6916 3.54547C16.3671 3.54547 16.9149 4.09321 16.9149 4.76875ZM20.3884 6.0103C20.3108 4.37164 19.9366 2.92013 18.7361 1.72424C17.5402 0.52834 16.0887 0.154052 14.45 0.0718907C12.7612 -0.0239636 7.69916 -0.0239636 6.0103 0.0718907C4.37621 0.149487 2.9247 0.523775 1.72424 1.71967C0.523776 2.91557 0.154052 4.36708 0.0718907 6.00573C-0.0239636 7.69459 -0.0239636 12.7566 0.0718907 14.4455C0.149487 16.0841 0.523776 17.5356 1.72424 18.7315C2.9247 19.9274 4.37164 20.3017 6.0103 20.3839C7.69916 20.4797 12.7612 20.4797 14.45 20.3839C16.0887 20.3063 17.5402 19.932 18.7361 18.7315C19.932 17.5356 20.3063 16.0841 20.3884 14.4455C20.4843 12.7566 20.4843 7.69916 20.3884 6.0103ZM18.2066 16.2576C17.8506 17.1522 17.1614 17.8415 16.2621 18.2021C14.9156 18.7361 11.7205 18.6129 10.2325 18.6129C8.74443 18.6129 5.54472 18.7315 4.20276 18.2021C3.30812 17.846 2.61888 17.1568 2.25828 16.2576C1.72424 14.9111 1.84748 11.7159 1.84748 10.2279C1.84748 8.73986 1.7288 5.54015 2.25828 4.19819C2.61431 3.30355 3.30355 2.61431 4.20276 2.25372C5.54928 1.71967 8.74443 1.84291 10.2325 1.84291C11.7205 1.84291 14.9202 1.72424 16.2621 2.25372C17.1568 2.60975 17.846 3.29899 18.2066 4.19819C18.7407 5.54472 18.6174 8.73986 18.6174 10.2279C18.6174 11.7159 18.7407 14.9156 18.2066 16.2576Z" fill="white"/>
</svg>
