<svg width="20" height="20" viewBox="0 0 20 20" fill="none" xmlns="http://www.w3.org/2000/svg">
<path d="M9.75 0C4.374 0 0 4.374 0 9.75C0 15.126 4.374 19.5 9.75 19.5C15.126 19.5 19.5 15.126 19.5 9.75C19.5 4.374 15.126 0 9.75 0ZM9.75 1.5C14.3153 1.5 18 5.18475 18 9.75C18 14.3153 14.3153 18 9.75 18C5.18475 18 1.5 14.3153 1.5 9.75C1.5 5.18475 5.18475 1.5 9.75 1.5ZM6.915 5.835L5.835 6.915L8.673 9.75L5.8365 12.585L6.9165 13.665L9.75 10.8278L12.585 13.6627L13.665 12.585L10.8278 9.75L13.6627 6.915L12.585 5.835L9.75 8.673L6.915 5.8365V5.835Z" fill="#A9B4C5"/>
</svg>
