<svg width="872" height="223" viewBox="0 0 872 223" fill="none" xmlns="http://www.w3.org/2000/svg">
<path d="M437.309 223L439.619 219H435L437.309 223ZM437.309 0L435 4H439.619L437.309 0ZM868.809 126.5L871.119 122.5H866.5L868.809 126.5ZM868.809 56H869.209V55.6H868.809V56ZM2.30933 56V55.6H1.90933V56H2.30933ZM2.30933 126.5L4.61873 122.5H-7.48634e-05L2.30933 126.5ZM437.309 3.6H436.909V3.98214H437.309H437.709V3.6H437.309ZM437.309 11.9464H436.909V19.9107H437.309H437.709V11.9464H437.309ZM437.309 27.875H436.909V35.8393H437.309H437.709V27.875H437.309ZM437.309 43.8036H436.909V51.7679H437.309H437.709V43.8036H437.309ZM437.309 59.7321H436.909V67.6964H437.309H437.709V59.7321H437.309ZM437.309 75.6607H436.909V83.625H437.309H437.709V75.6607H437.309ZM437.309 91.5893H436.909V99.5536H437.309H437.709V91.5893H437.309ZM437.309 107.518H436.909V115.482H437.309H437.709V107.518H437.309ZM437.309 123.446H436.909V131.411H437.309H437.709V123.446H437.309ZM437.309 139.375H436.909V147.339H437.309H437.709V139.375H437.309ZM437.309 155.304H436.909V163.268H437.309H437.709V155.304H437.309ZM437.309 171.232H436.909V179.196H437.309H437.709V171.232H437.309ZM437.309 187.161H436.909V195.125H437.309H437.709V187.161H437.309ZM437.309 203.089H436.909V211.054H437.309H437.709V203.089H437.309ZM437.309 219.018H436.909V219.4H437.309H437.709V219.018H437.309ZM2.30933 122.9H2.70933V122.094H2.30933H1.90933V122.9H2.30933ZM2.30933 113.281H2.70933V104.469H2.30933H1.90933V113.281H2.30933ZM2.30933 95.6562H2.70933V86.8438H2.30933H1.90933V95.6562H2.30933ZM2.30933 78.0312H2.70933V69.2188H2.30933H1.90933V78.0312H2.30933ZM2.30933 60.4062H2.70933V56H2.30933H1.90933V60.4062H2.30933ZM2.30933 56V56.4H6.3209V56V55.6H2.30933V56ZM14.344 56V56.4H22.3672V56V55.6H14.344V56ZM30.3903 56V56.4H38.4135V56V55.6H30.3903V56ZM46.4366 56V56.4H54.4598V56V55.6H46.4366V56ZM62.4829 56V56.4H70.5061V56V55.6H62.4829V56ZM78.5292 56V56.4H86.5524V56V55.6H78.5292V56ZM94.5755 56V56.4H102.599V56V55.6H94.5755V56ZM110.622 56V56.4H118.645V56V55.6H110.622V56ZM126.668 56V56.4H134.691V56V55.6H126.668V56ZM142.714 56V56.4H150.738V56V55.6H142.714V56ZM158.761 56V56.4H166.784V56V55.6H158.761V56ZM174.807 56V56.4H182.83V56V55.6H174.807V56ZM190.853 56V56.4H198.876V56V55.6H190.853V56ZM206.9 56V56.4H214.923V56V55.6H206.9V56ZM222.946 56V56.4H230.969V56V55.6H222.946V56ZM238.992 56V56.4H247.015V56V55.6H238.992V56ZM255.038 56V56.4H263.062V56V55.6H255.038V56ZM271.085 56V56.4H279.108V56V55.6H271.085V56ZM287.131 56V56.4H295.154V56V55.6H287.131V56ZM303.177 56V56.4H311.201V56V55.6H303.177V56ZM319.224 56V56.4H327.247V56V55.6H319.224V56ZM335.27 56V56.4H343.293V56V55.6H335.27V56ZM351.316 56V56.4H359.34V56V55.6H351.316V56ZM367.363 56V56.4H375.386V56V55.6H367.363V56ZM383.409 56V56.4H391.432V56V55.6H383.409V56ZM399.455 56V56.4H407.479V56V55.6H399.455V56ZM415.502 56V56.4H423.525V56V55.6H415.502V56ZM431.548 56V56.4H439.571V56V55.6H431.548V56ZM447.594 56V56.4H455.618V56V55.6H447.594V56ZM463.641 56V56.4H471.664V56V55.6H463.641V56ZM479.687 56V56.4H487.71V56V55.6H479.687V56ZM495.733 56V56.4H503.757V56V55.6H495.733V56ZM511.78 56V56.4H519.803V56V55.6H511.78V56ZM527.826 56V56.4H535.849V56V55.6H527.826V56ZM543.872 56V56.4H551.895V56V55.6H543.872V56ZM559.919 56V56.4H567.942V56V55.6H559.919V56ZM575.965 56V56.4H583.988V56V55.6H575.965V56ZM592.011 56V56.4H600.034V56V55.6H592.011V56ZM608.057 56V56.4H616.08V56V55.6H608.057V56ZM624.104 56V56.4H632.127V56V55.6H624.104V56ZM640.15 56V56.4H648.173V56V55.6H640.15V56ZM656.196 56V56.4H664.219V56V55.6H656.196V56ZM672.242 56V56.4H680.266V56V55.6H672.242V56ZM688.289 56V56.4H696.312V56V55.6H688.289V56ZM704.335 56V56.4H712.358V56V55.6H704.335V56ZM720.381 56V56.4H728.404V56V55.6H720.381V56ZM736.427 56V56.4H744.451V56V55.6H736.427V56ZM752.474 56V56.4H760.497V56V55.6H752.474V56ZM768.52 56V56.4H776.543V56V55.6H768.52V56ZM784.566 56V56.4H792.589V56V55.6H784.566V56ZM800.612 56V56.4H808.636V56V55.6H800.612V56ZM816.659 56V56.4H824.682V56V55.6H816.659V56ZM832.705 56V56.4H840.728V56V55.6H832.705V56ZM848.751 56V56.4H856.774V56V55.6H848.751V56ZM864.798 56V56.4H868.809V56V55.6H864.798V56ZM868.809 56H868.409V60.4062H868.809H869.209V56H868.809ZM868.809 69.2188H868.409V78.0312H868.809H869.209V69.2188H868.809ZM868.809 86.8438H868.409V95.6562H868.809H869.209V86.8438H868.809ZM868.809 104.469H868.409V113.281H868.809H869.209V104.469H868.809ZM868.809 122.094H868.409V122.9H868.809H869.209V122.094H868.809Z" fill="#A9B4C5"/>
</svg>
