<svg width="59" height="41" viewBox="0 0 59 41" fill="none" xmlns="http://www.w3.org/2000/svg">
<path d="M8.84574 8.86297C8.71205 7.81128 9.76698 7.00924 10.7446 7.4193L24.4435 13.1652C25.6728 13.6808 25.5255 15.4679 24.2284 15.7752L16.5813 17.5874L13.2853 23.8998C12.6611 25.0953 10.8684 24.7739 10.6983 23.436L8.84574 8.86297Z" fill="white"/>
<rect x="22.4219" y="23.8333" width="36" height="17" rx="4" fill="#3364AC"/>
<path d="M35.4865 32.5233V35.3333H34.5765V32.5233L31.8165 28.1733H32.9365L35.0465 31.6633L37.0865 28.1733H38.1765L35.4865 32.5233ZM40.9393 30.0833C41.7126 30.0833 42.3026 30.3533 42.7093 30.8933C43.0693 31.3599 43.2493 31.9933 43.2493 32.7933C43.2493 33.6866 43.0159 34.3666 42.5493 34.8333C42.1493 35.2399 41.6093 35.4433 40.9293 35.4433C40.1426 35.4433 39.5426 35.1799 39.1293 34.6533C38.7693 34.1933 38.5893 33.5733 38.5893 32.7933C38.5893 31.8866 38.8259 31.1899 39.2993 30.7033C39.7059 30.2899 40.2526 30.0833 40.9393 30.0833ZM40.9393 30.8333C40.4726 30.8333 40.1059 31.0099 39.8393 31.3633C39.5726 31.7099 39.4393 32.1866 39.4393 32.7933C39.4393 33.4266 39.5893 33.9099 39.8893 34.2433C40.1493 34.5366 40.4959 34.6833 40.9293 34.6833C41.3893 34.6833 41.7459 34.5166 41.9993 34.1833C42.2593 33.8499 42.3893 33.3866 42.3893 32.7933C42.3893 32.1399 42.2426 31.6399 41.9493 31.2933C41.6959 30.9866 41.3593 30.8333 40.9393 30.8333ZM48.4282 35.3333H47.6182V34.5233C47.2516 35.1366 46.7049 35.4433 45.9782 35.4433C45.4782 35.4433 45.0782 35.3199 44.7782 35.0733C44.4849 34.8199 44.3382 34.4833 44.3382 34.0633V30.1933H45.1482V33.7333C45.1482 34.0333 45.2449 34.2733 45.4382 34.4533C45.6316 34.6333 45.8916 34.7233 46.2182 34.7233C46.6449 34.7233 46.9849 34.5699 47.2382 34.2633C47.4916 33.9499 47.6182 33.5299 47.6182 33.0033V30.1933H48.4282V35.3333Z" fill="white"/>
</svg>
