<svg width="74" height="32" viewBox="0 0 74 32" fill="none" xmlns="http://www.w3.org/2000/svg">
<path d="M73.2168 0L66.2067 7.01242H66.2044C65.4537 7.7676 64.8694 8.34972 64.285 8.93634C63.6984 9.52071 63.114 10.1051 62.3611 10.858V7.01467H19.9135V11.557H36.8826V20.1652L32.7763 24.2738L25.7639 31.2862H0L7.01242 24.2738H7.03939C7.76086 23.5523 8.32949 22.9836 8.89813 22.415C9.48474 21.8306 10.0691 21.244 10.822 20.4933V24.2738H28.5262V19.9517H11.3008V11.3727L22.6735 0H73.2168Z" fill="white"/>
<path d="M62.0824 11.3884C58.8774 14.5912 57.0816 16.3893 53.8766 19.5921H46.5L38.2627 27.9732V11.3884H62.0824Z" fill="white"/>
</svg>
