<svg width="180" height="40" viewBox="0 0 180 40" fill="none" xmlns="http://www.w3.org/2000/svg">
<g clip-path="url(#clip0_73_3211)">
<path d="M0 11.4221H3.11513C3.23201 12.2627 3.57588 12.8853 4.14677 13.2921C4.7154 13.6989 5.53801 13.9012 6.6146 13.9012C7.53161 13.9012 8.22161 13.7371 8.68686 13.4112C9.1521 13.0853 9.3836 12.6021 9.3836 11.9638C9.3836 11.0333 8.0463 10.2624 5.37394 9.65105L5.27954 9.63083C5.20987 9.61734 5.10198 9.59262 4.95589 9.5589C3.52644 9.24649 2.50379 8.89587 1.8947 8.50704C1.35304 8.16092 0.939484 7.69342 0.654043 7.10681C0.368601 6.52019 0.227005 5.82794 0.227005 5.0278C0.227005 3.53542 0.732708 2.3914 1.74861 1.59576C2.76226 0.800125 4.22768 0.404552 6.14486 0.404552C7.93617 0.404552 9.33641 0.829343 10.3478 1.67443C11.357 2.52176 11.8896 3.71522 11.9458 5.25706H8.91611C8.85992 4.51311 8.57673 3.94897 8.06203 3.56014C7.54734 3.17131 6.81463 2.97802 5.86391 2.97802C5.0368 2.97802 4.40074 3.13984 3.95348 3.46349C3.50621 3.78714 3.28145 4.24565 3.28145 4.8435C3.28145 5.65712 4.15351 6.26397 5.89538 6.66628C6.36737 6.77641 6.73597 6.86407 6.99893 6.927C8.11597 7.21244 8.90937 7.43495 9.37911 7.59453C9.84885 7.75411 10.2557 7.93166 10.604 8.12495C11.2289 8.47333 11.6986 8.93183 12.011 9.50496C12.3234 10.0781 12.4785 10.7636 12.4785 11.5615C12.4785 13.1595 11.9413 14.3957 10.8648 15.2745C9.78817 16.1533 8.27106 16.5915 6.31342 16.5915C4.35579 16.5915 2.87015 16.1443 1.77333 15.2475C0.674271 14.3507 0.0831601 13.0764 0 11.4221Z" fill="white"/>
<path d="M16.3379 16.1623V0.820351H19.3474V6.0909C19.7564 5.57621 20.2442 5.18963 20.8106 4.92891C21.3769 4.66819 22.0108 4.53783 22.712 4.53783C23.4132 4.53783 23.9819 4.65246 24.519 4.88171C25.0562 5.11096 25.4922 5.43686 25.8271 5.86165C26.0564 6.14709 26.2182 6.47299 26.3104 6.84159C26.4048 7.21019 26.452 7.79905 26.452 8.61267V16.1645H23.4425V10.2377C23.4425 8.83518 23.3143 7.95414 23.0559 7.59677C22.7997 7.23941 22.3367 7.0596 21.6714 7.0596C20.9566 7.0596 20.3903 7.27312 19.9745 7.70016C19.5587 8.1272 19.3496 8.70932 19.3496 9.44428V16.1623H16.3401H16.3379Z" fill="white"/>
<path d="M30.7783 4.83902V16.16H33.8103V4.83902H30.7783Z" fill="white"/>
<path d="M33.821 -7.62939e-06C33.2232 0.595598 32.7579 1.06085 32.2949 1.52609C31.8275 1.99359 31.3622 2.45659 30.7666 3.05219V-7.62939e-06H33.8233H33.821Z" fill="white"/>
<path d="M38.1797 18.6256V2.76225H41.0656V4.29284C41.5038 3.62756 41.9916 3.13984 42.5287 2.83417C43.0659 2.5285 43.6997 2.37567 44.4302 2.37567C45.8259 2.37567 46.9564 2.92632 47.8263 4.02538C48.6938 5.12669 49.1276 6.57188 49.1276 8.36319C49.1276 10.1545 48.6938 11.6469 47.8263 12.7729C46.9587 13.9012 45.8394 14.4653 44.4729 14.4653C43.7514 14.4653 43.1064 14.3125 42.5422 14.0068C41.9758 13.7012 41.5061 13.2562 41.1307 12.674V18.6211H38.1842L38.1797 18.6256ZM46.1159 8.4913C46.1159 7.35179 45.9001 6.48198 45.4708 5.88188C45.0393 5.28178 44.4144 4.9806 43.5963 4.9806C42.7782 4.9806 42.1781 5.27953 41.7578 5.87513C41.3375 6.47299 41.1285 7.3428 41.1285 8.48906C41.1285 9.5589 41.3488 10.3838 41.7893 10.9681C42.2298 11.5502 42.8524 11.8424 43.6593 11.8424C44.4234 11.8424 45.0235 11.5435 45.4618 10.9457C45.9001 10.3478 46.1181 9.52968 46.1181 8.48681L46.1159 8.4913Z" fill="white"/>
<path d="M57.3061 16.1623V6.96521H55.6924V4.84126H57.3061V3.7894C57.3061 2.73304 57.5781 1.95763 58.1243 1.46091C58.6682 0.964201 59.529 0.716969 60.7022 0.716969C60.918 0.716969 61.145 0.721464 61.3855 0.732702C61.626 0.743939 61.8799 0.76192 62.1519 0.791138V3.19604H61.3608C60.909 3.19604 60.6123 3.25447 60.4707 3.3736C60.3291 3.49272 60.2572 3.71747 60.2572 4.05011V4.84126H62.1519V6.96521H60.2774V16.1623H57.3084H57.3061Z" fill="white"/>
<path d="M65.3955 16.1623V0.820351H68.4252V16.1623H65.3955Z" fill="white"/>
<path d="M72.1826 10.4849C72.1826 8.60368 72.6928 7.12478 73.7132 6.04819C74.7336 4.97161 76.1361 4.43444 77.9207 4.43444C79.7052 4.43444 81.0987 4.97161 82.1236 6.04819C83.1485 7.12478 83.6587 8.60368 83.6587 10.4849C83.6587 12.3661 83.1463 13.8562 82.1236 14.9328C81.0987 16.0094 79.6985 16.5466 77.9207 16.5466C76.1428 16.5466 74.7336 16.0094 73.7132 14.9328C72.6928 13.8562 72.1826 12.3751 72.1826 10.4849ZM75.255 10.4849C75.255 11.6087 75.4865 12.4785 75.9473 13.0876C76.4103 13.6989 77.0666 14.0046 77.9207 14.0046C78.7747 14.0046 79.4108 13.6989 79.8738 13.0876C80.3346 12.4762 80.566 11.6087 80.566 10.4849C80.566 9.36111 80.3368 8.50479 79.8783 7.89569C79.4198 7.2866 78.768 6.98543 77.9207 6.98543C77.0733 6.98543 76.408 7.28885 75.9473 7.89569C75.4865 8.50254 75.255 9.36561 75.255 10.4849Z" fill="white"/>
<path d="M89.3518 16.1623L86.1445 4.84125H89.217L91.0712 12.683L92.6333 4.84125H95.7259L97.3711 12.683L99.2254 4.84125H102.163L98.9871 16.1623H95.9574L94.1459 8.05977L92.395 16.1623H89.3541H89.3518Z" fill="white"/>
<path d="M3.94448 35.0149C3.23875 35.0149 2.58246 34.8306 1.97112 34.4597C1.36203 34.0889 0.8788 33.5899 0.528179 32.9629C0.17531 32.3358 0 31.657 0 30.9288V29.8702C0 29.1173 0.173063 28.4273 0.519189 27.8002C0.865314 27.1731 1.35304 26.6831 1.98011 26.3303C2.60718 25.9774 3.29719 25.8021 4.05012 25.8021H4.24791C5.00084 25.8021 5.6886 25.9797 6.30893 26.3303C6.92926 26.6831 7.41698 27.1731 7.76985 27.8002C8.12272 28.4273 8.29803 29.1173 8.29803 29.8702V31.6638L5.89538 32.7044V29.8725C5.89538 29.3712 5.74254 28.9644 5.43912 28.6543C5.1357 28.3441 4.73563 28.1868 4.24566 28.1868H4.04787C3.72422 28.1868 3.43878 28.2587 3.18705 28.4025C2.93533 28.5464 2.73979 28.7464 2.59594 29.0026C2.4521 29.2589 2.38018 29.5488 2.38018 29.8725V30.9311C2.38018 31.23 2.4521 31.5087 2.59594 31.7649C2.73979 32.0211 2.93308 32.2279 3.17806 32.383C3.42305 32.5381 3.67702 32.6167 3.93999 32.6167V35.0194L3.94448 35.0149ZM1.27212 36.6826C2.42063 36.9096 3.33764 36.9883 4.0254 36.9163C4.71315 36.8444 5.19638 36.6646 5.47733 36.3792C5.75827 36.0915 5.89762 35.7161 5.89762 35.2486V32.4527L8.30028 31.412V35.8397C8.30028 36.6893 8.02158 37.4175 7.46643 38.0266C6.91128 38.6357 6.1044 39.0268 5.04579 39.2021C3.98719 39.3752 2.7308 39.2763 1.27212 38.9054V36.6826ZM7.08209 32.6122V35.0149H3.9265V32.6122H7.08209ZM9.17908 32.6302V35.0329H8.04855V32.6302H9.17908Z" fill="white"/>
<path d="M14.1355 32.6302V35.0329H8.91211V32.6302H14.1355Z" fill="white"/>
<path d="M17.8117 32.6302V35.0329H13.7773V32.6302H17.8117Z" fill="white"/>
<path d="M21.4865 32.6302V35.0329H17.4521V32.6302H21.4865Z" fill="white"/>
<path d="M20.251 34.6553V33.0235L21.2916 32.628V35.0306L20.251 34.653V34.6553ZM21.6849 32.628C22.1749 32.628 22.5188 32.4999 22.7166 32.2436C22.9143 31.9874 23.0132 31.6323 23.0132 31.176V22.5521H25.3979V30.2276C25.3979 31.4457 25.1372 32.5515 24.618 33.545C24.0988 34.5362 23.1076 35.0329 21.6512 35.0329H21.2736V32.6302H21.6849V32.628ZM26.4003 35.0306C25.7912 35.0306 25.2248 34.8396 24.7057 34.4575C24.1865 34.0754 23.7729 33.5967 23.4695 33.0235C23.1638 32.4504 23.0132 31.893 23.0132 31.3558L22.9953 22.5521H25.3799V31.176C25.3799 31.63 25.4811 31.9852 25.6856 32.2436C25.8879 32.4999 26.2407 32.628 26.7442 32.628H27.2814V35.0306H26.4026H26.4003Z" fill="white"/>
<path d="M31.0979 32.6302V35.0329H27.0635V32.6302H31.0979Z" fill="white"/>
<path d="M34.7746 32.6302V35.0329H30.7402V32.6302H34.7746Z" fill="white"/>
<path d="M39.8656 25.8156C40.6185 25.8156 41.3063 25.9954 41.9266 26.3527C42.5492 26.7101 43.0392 27.2023 43.3965 27.8227C43.7561 28.4452 43.9337 29.1375 43.9337 29.9017V31.2637C43.9337 31.9335 43.7651 32.5583 43.4325 33.1382C43.0976 33.718 42.6413 34.1788 42.0615 34.5182C41.4816 34.8598 40.8523 35.0284 40.169 35.0284H34.5748L33.5342 34.6508V33.0011L34.5748 32.6235H36.1706C36.002 32.3852 35.8694 32.1223 35.766 31.8346C35.6649 31.5469 35.6132 31.2435 35.6132 30.9198V29.8972C35.6132 29.133 35.793 28.4385 36.1504 27.8182C36.51 27.1978 36.9999 26.7056 37.6203 26.3483C38.2428 25.9886 38.9283 25.8111 39.6813 25.8111H39.8611L39.8656 25.8156ZM41.5513 29.9039C41.5513 29.569 41.4793 29.2768 41.3355 29.0251C41.1917 28.7734 40.9916 28.5778 40.7354 28.434C40.4792 28.2902 40.1892 28.2182 39.8656 28.2182H39.6858C39.3621 28.2182 39.0767 28.2902 38.825 28.434C38.5732 28.5778 38.3777 28.7756 38.2338 29.0251C38.09 29.2768 38.0181 29.569 38.0181 29.9039V30.9266C38.0181 31.2367 38.09 31.5222 38.2338 31.7784C38.3777 32.0346 38.5687 32.2414 38.807 32.3965C39.0452 32.5515 39.3037 32.6302 39.5779 32.6302H39.9375C40.2364 32.6302 40.5039 32.5583 40.7444 32.4144C40.9826 32.2706 41.1782 32.0773 41.3265 31.8323C41.4771 31.5873 41.5513 31.3221 41.5513 31.0344V29.9039ZM39.8836 24.7974H38.2833V21.7924H41.2883V23.3927C40.7399 23.9411 40.432 24.249 39.8836 24.7974Z" fill="white"/>
<path d="M55 28.4879V31.0344C55 31.5132 55.1461 31.8975 55.4383 32.1919C55.7305 32.4841 56.1171 32.6302 56.5958 32.6302H62.6373C63.152 32.6302 63.5071 32.5021 63.7049 32.2459C63.9026 31.9897 64.0015 31.6345 64.0015 31.1783V26.5528H66.3862V30.2276C66.3862 31.4457 66.1255 32.5515 65.6063 33.545C65.0871 34.5361 64.0914 35.0329 62.6215 35.0329H56.5958C55.8429 35.0329 55.1641 34.8598 54.5617 34.5137C53.9571 34.1675 53.4807 33.6888 53.1278 33.0797C52.7749 32.4706 52.5996 31.7896 52.5996 31.0367V28.4902H55.0023L55 28.4879ZM59.6075 40C59.2254 40 58.8928 39.8584 58.6119 39.5797C58.3309 39.2987 58.1916 38.9661 58.1916 38.584C58.1916 38.2019 58.3309 37.8738 58.6119 37.5973C58.8928 37.3231 59.2232 37.186 59.6075 37.186C59.9919 37.186 60.3223 37.3231 60.6032 37.5973C60.8842 37.8715 61.0235 38.2019 61.0235 38.584C61.0235 38.9661 60.8819 39.2987 60.6032 39.5797C60.3223 39.8606 59.9896 40 59.6075 40ZM67.3886 35.0329C66.7908 35.0329 66.2334 34.8418 65.7119 34.4597C65.1927 34.0776 64.7792 33.5989 64.4758 33.0258C64.1701 32.4527 64.0128 31.8953 64.0015 31.3581L63.9836 26.5528H66.3682V31.1783C66.3682 31.6323 66.4694 31.9874 66.6739 32.2459C66.8762 32.5021 67.229 32.6302 67.7325 32.6302H68.2697V35.0329H67.3909H67.3886Z" fill="white"/>
<path d="M71.9602 32.6302V35.0329H67.9258V32.6302H71.9602Z" fill="white"/>
<path d="M75.6379 32.6302V35.0329H71.6035V32.6302H75.6379Z" fill="white"/>
<path d="M75.3854 32.6302V35.0329L74.3447 34.6553V33.0235L75.3854 32.628V32.6302ZM77.2868 32.6302C77.788 32.6302 78.1364 32.5021 78.3274 32.2459C78.5185 31.9897 78.6151 31.6345 78.6151 31.1783V26.5528H81.0178V30.2276C81.0178 31.4457 80.7548 32.5515 80.2289 33.545C79.7029 34.5361 78.7118 35.0329 77.2531 35.0329H75.3876V32.6302H77.289H77.2868ZM77.4846 39.5325C77.1025 39.5325 76.7721 39.3909 76.4979 39.1122C76.2237 38.8313 76.0866 38.4986 76.0866 38.1165C76.0866 37.7344 76.2237 37.404 76.4979 37.1298C76.7721 36.8556 77.1002 36.7185 77.4846 36.7185C77.8689 36.7185 78.2128 36.8556 78.4892 37.1298C78.7634 37.404 78.9005 37.7322 78.9005 38.1165C78.9005 38.5009 78.7634 38.8313 78.4892 39.1122C78.215 39.3931 77.8802 39.5325 77.4846 39.5325ZM82.0202 35.0329C81.4111 35.0329 80.8447 34.8418 80.3255 34.4597C79.8063 34.0776 79.3928 33.5989 79.0894 33.0258C78.7837 32.4527 78.6331 31.8953 78.6331 31.3581L78.5971 26.5528H80.9998V31.1783C80.9998 31.6323 81.0987 31.9874 81.2965 32.2459C81.4942 32.5021 81.8426 32.6302 82.3461 32.6302H84.1037V35.0329H82.0247H82.0202ZM81.3212 39.5325C80.9391 39.5325 80.6065 39.3909 80.3255 39.1122C80.0446 38.8313 79.9052 38.4986 79.9052 38.1165C79.9052 37.7344 80.0446 37.404 80.3255 37.1298C80.6065 36.8556 80.9369 36.7185 81.3212 36.7185C81.7055 36.7185 82.0359 36.8556 82.3169 37.1298C82.5978 37.404 82.7372 37.7322 82.7372 38.1165C82.7372 38.5009 82.5956 38.8313 82.3169 39.1122C82.0359 39.3931 81.7033 39.5325 81.3212 39.5325Z" fill="white"/>
<path d="M87.7766 32.6302V35.0329H83.7422V32.6302H87.7766Z" fill="white"/>
<path d="M88.3385 32.6302V35.0329H87.417V32.6302H88.3385Z" fill="white"/>
<path d="M87.084 34.6553V33.0235L88.1246 32.628V35.0306L87.084 34.653V34.6553ZM102.163 25.9954V31.4457C102.163 32.0908 102.001 32.6886 101.68 33.2393C101.356 33.79 100.92 34.226 100.372 34.5474C99.821 34.871 99.2231 35.0306 98.5781 35.0306C98.0634 35.0306 97.5981 34.9497 97.1801 34.7879C96.762 34.6261 96.4024 34.4013 96.1035 34.1159C95.7574 34.4395 95.3708 34.6777 94.946 34.8328C94.5212 34.9879 94.0762 35.0666 93.6109 35.0666C93.1457 35.0666 92.7209 34.9902 92.3388 34.8328C91.9567 34.6777 91.5971 34.4373 91.2622 34.1159C90.9521 34.4035 90.5924 34.6261 90.1856 34.7879C89.7788 34.9497 89.3495 35.0306 88.8933 35.0306H88.1403V32.628H88.9113C89.2574 32.628 89.5383 32.5201 89.7541 32.3043C89.9699 32.0885 90.0777 31.8143 90.0777 31.4795V27.8586H92.4624V31.4795C92.4624 31.8503 92.5658 32.1425 92.7771 32.3583C92.9884 32.574 93.2828 32.6819 93.6649 32.6819C94.0357 32.6931 94.3369 32.592 94.5706 32.3762C94.8044 32.1605 94.9213 31.8615 94.9213 31.4795V27.8586H97.3059V31.4795C97.3059 31.8368 97.4206 32.1178 97.6476 32.3223C97.8746 32.5268 98.1847 32.628 98.5803 32.628C98.9152 32.628 99.1961 32.5156 99.4231 32.2863C99.6501 32.0593 99.7648 31.7784 99.7648 31.4435V25.9931H102.167L102.163 25.9954ZM93.8424 25.4582C93.4603 25.4582 93.1277 25.3189 92.8468 25.0379C92.5658 24.757 92.4265 24.4266 92.4265 24.0422C92.4265 23.6579 92.5658 23.3455 92.8468 23.0646C93.1277 22.7836 93.4581 22.6443 93.8424 22.6443C94.2268 22.6443 94.5527 22.7859 94.8291 23.0646C95.1033 23.3455 95.2404 23.6714 95.2404 24.0422C95.2404 24.4131 95.1033 24.757 94.8291 25.0379C94.5549 25.3189 94.2245 25.4582 93.8424 25.4582ZM95.7956 22.4824C95.4135 22.4824 95.0808 22.3431 94.7999 22.0621C94.5189 21.7812 94.3796 21.4508 94.3796 21.0665C94.3796 20.6821 94.5189 20.3517 94.7999 20.0708C95.0808 19.7898 95.4112 19.6505 95.7956 19.6505C96.1799 19.6505 96.5103 19.7921 96.7912 20.0708C97.0722 20.3517 97.2115 20.6844 97.2115 21.0665C97.2115 21.4486 97.0699 21.7812 96.7912 22.0621C96.5125 22.3431 96.1777 22.4824 95.7956 22.4824ZM97.6251 25.4582C97.243 25.4582 96.9104 25.3189 96.6294 25.0379C96.3485 24.757 96.2069 24.4266 96.2069 24.0422C96.2069 23.6579 96.3485 23.3455 96.6294 23.0646C96.9104 22.7836 97.2408 22.6443 97.6251 22.6443C98.0094 22.6443 98.3398 22.7859 98.6208 23.0646C98.9017 23.3455 99.0433 23.6714 99.0433 24.0422C99.0433 24.4131 98.9017 24.757 98.6208 25.0379C98.3398 25.3189 98.0094 25.4582 97.6251 25.4582Z" fill="white"/>
<path d="M179.716 2.98251L172.706 9.99493H172.703C171.953 10.7501 171.368 11.3322 170.784 11.9189C170.197 12.5032 169.613 13.0876 168.86 13.8405V9.99718H126.412V14.5395H143.382V23.1477L139.275 27.2563L132.263 34.2687H106.499L113.511 27.2563H113.538C114.26 26.5348 114.829 25.9662 115.397 25.3975C115.984 24.8132 116.568 24.2265 117.321 23.4759V27.2563H135.025V22.9342H117.8V14.3552L129.173 2.98251H179.716Z" fill="white"/>
<path d="M168.581 14.3709C165.376 17.5737 163.581 19.3718 160.376 22.5746H152.999L144.762 30.9558V14.3709H168.581Z" fill="white"/>
</g>
<defs>
<clipPath id="clip0_73_3211">
<rect width="179.716" height="40" fill="white"/>
</clipPath>
</defs>
</svg>
