<svg width="103" height="40" viewBox="0 0 103 40" fill="none" xmlns="http://www.w3.org/2000/svg">
<path d="M0 11.4221H3.11513C3.23201 12.2627 3.57588 12.8853 4.14677 13.2921C4.7154 13.6989 5.53801 13.9012 6.6146 13.9012C7.53161 13.9012 8.22161 13.7371 8.68686 13.4112C9.1521 13.0853 9.3836 12.6021 9.3836 11.9638C9.3836 11.0333 8.0463 10.2624 5.37394 9.65105L5.27954 9.63083C5.20987 9.61734 5.10198 9.59262 4.95589 9.5589C3.52644 9.24649 2.50379 8.89587 1.8947 8.50704C1.35304 8.16092 0.939484 7.69342 0.654043 7.10681C0.368601 6.52019 0.227005 5.82794 0.227005 5.0278C0.227005 3.53542 0.732708 2.3914 1.74861 1.59576C2.76226 0.800125 4.22768 0.404552 6.14486 0.404552C7.93617 0.404552 9.33641 0.829343 10.3478 1.67443C11.357 2.52176 11.8896 3.71522 11.9458 5.25706H8.91611C8.85992 4.51311 8.57673 3.94897 8.06203 3.56014C7.54734 3.17131 6.81463 2.97802 5.86391 2.97802C5.0368 2.97802 4.40074 3.13984 3.95348 3.46349C3.50621 3.78714 3.28145 4.24565 3.28145 4.8435C3.28145 5.65712 4.15351 6.26397 5.89538 6.66628C6.36737 6.77641 6.73597 6.86407 6.99893 6.927C8.11597 7.21244 8.90937 7.43495 9.37911 7.59453C9.84885 7.75411 10.2557 7.93166 10.604 8.12495C11.2289 8.47333 11.6986 8.93183 12.011 9.50496C12.3234 10.0781 12.4785 10.7636 12.4785 11.5615C12.4785 13.1595 11.9413 14.3957 10.8648 15.2745C9.78817 16.1533 8.27106 16.5915 6.31342 16.5915C4.35579 16.5915 2.87015 16.1443 1.77333 15.2475C0.674271 14.3507 0.0831601 13.0764 0 11.4221Z" fill="white"/>
<path d="M16.3374 16.1623V0.820351H19.3469V6.0909C19.756 5.57621 20.2437 5.18963 20.8101 4.92891C21.3765 4.66819 22.0103 4.53783 22.7115 4.53783C23.4128 4.53783 23.9814 4.65246 24.5186 4.88171C25.0557 5.11096 25.4918 5.43686 25.8266 5.86165C26.0559 6.14709 26.2177 6.47299 26.3099 6.84159C26.4043 7.21019 26.4515 7.79905 26.4515 8.61267V16.1645H23.442V10.2377C23.442 8.83518 23.3139 7.95414 23.0554 7.59677C22.7992 7.23941 22.3362 7.0596 21.6709 7.0596C20.9562 7.0596 20.3898 7.27312 19.974 7.70016C19.5582 8.1272 19.3491 8.70932 19.3491 9.44428V16.1623H16.3396H16.3374Z" fill="white"/>
<path d="M30.7783 4.83902V16.16H33.8103V4.83902H30.7783Z" fill="white"/>
<path d="M33.8215 -7.62939e-06C33.2237 0.595598 32.7584 1.06085 32.2954 1.52609C31.8279 1.99359 31.3627 2.45659 30.7671 3.05219V-7.62939e-06H33.8238H33.8215Z" fill="white"/>
<path d="M38.1797 18.6256V2.76225H41.0656V4.29284C41.5038 3.62756 41.9916 3.13984 42.5287 2.83417C43.0659 2.5285 43.6997 2.37567 44.4302 2.37567C45.8259 2.37567 46.9564 2.92632 47.8263 4.02538C48.6938 5.12669 49.1276 6.57188 49.1276 8.36319C49.1276 10.1545 48.6938 11.6469 47.8263 12.7729C46.9587 13.9012 45.8394 14.4653 44.4729 14.4653C43.7514 14.4653 43.1064 14.3125 42.5422 14.0068C41.9758 13.7012 41.5061 13.2562 41.1307 12.674V18.6211H38.1842L38.1797 18.6256ZM46.1159 8.4913C46.1159 7.35179 45.9001 6.48198 45.4708 5.88188C45.0393 5.28178 44.4144 4.9806 43.5963 4.9806C42.7782 4.9806 42.1781 5.27953 41.7578 5.87513C41.3375 6.47299 41.1285 7.3428 41.1285 8.48906C41.1285 9.5589 41.3488 10.3838 41.7893 10.9681C42.2298 11.5502 42.8524 11.8424 43.6593 11.8424C44.4234 11.8424 45.0235 11.5435 45.4618 10.9457C45.9001 10.3478 46.1181 9.52968 46.1181 8.48681L46.1159 8.4913Z" fill="white"/>
<path d="M57.3061 16.1623V6.96521H55.6924V4.84126H57.3061V3.7894C57.3061 2.73304 57.5781 1.95763 58.1243 1.46091C58.6682 0.964201 59.529 0.716969 60.7022 0.716969C60.918 0.716969 61.145 0.721464 61.3855 0.732702C61.626 0.743939 61.8799 0.76192 62.1519 0.791138V3.19604H61.3608C60.909 3.19604 60.6123 3.25447 60.4707 3.3736C60.3291 3.49272 60.2572 3.71747 60.2572 4.05011V4.84126H62.1519V6.96521H60.2774V16.1623H57.3084H57.3061Z" fill="white"/>
<path d="M65.3955 16.1623V0.820351H68.4252V16.1623H65.3955Z" fill="white"/>
<path d="M72.1831 10.4849C72.1831 8.60368 72.6933 7.12478 73.7137 6.04819C74.7341 4.97161 76.1366 4.43444 77.9212 4.43444C79.7057 4.43444 81.0992 4.97161 82.1241 6.04819C83.149 7.12478 83.6592 8.60368 83.6592 10.4849C83.6592 12.3661 83.1468 13.8562 82.1241 14.9328C81.0992 16.0094 79.699 16.5466 77.9212 16.5466C76.1433 16.5466 74.7341 16.0094 73.7137 14.9328C72.6933 13.8562 72.1831 12.3751 72.1831 10.4849ZM75.2555 10.4849C75.2555 11.6087 75.487 12.4785 75.9478 13.0876C76.4108 13.6989 77.0671 14.0046 77.9212 14.0046C78.7752 14.0046 79.4113 13.6989 79.8743 13.0876C80.335 12.4762 80.5665 11.6087 80.5665 10.4849C80.5665 9.36111 80.3373 8.50479 79.8788 7.89569C79.4203 7.2866 78.7685 6.98543 77.9212 6.98543C77.0738 6.98543 76.4085 7.28885 75.9478 7.89569C75.487 8.50254 75.2555 9.36561 75.2555 10.4849Z" fill="white"/>
<path d="M89.3523 16.1623L86.145 4.84125H89.2175L91.0717 12.683L92.6338 4.84125H95.7264L97.3716 12.683L99.2259 4.84125H102.163L98.9876 16.1623H95.9579L94.1464 8.05977L92.3955 16.1623H89.3545H89.3523Z" fill="white"/>
<path d="M3.94448 35.0149C3.23875 35.0149 2.58246 34.8306 1.97112 34.4597C1.36203 34.0889 0.8788 33.5899 0.528179 32.9629C0.17531 32.3358 0 31.657 0 30.9288V29.8702C0 29.1173 0.173063 28.4273 0.519189 27.8002C0.865314 27.1731 1.35304 26.6831 1.98011 26.3303C2.60718 25.9774 3.29719 25.8021 4.05012 25.8021H4.24791C5.00084 25.8021 5.6886 25.9797 6.30893 26.3303C6.92926 26.6831 7.41698 27.1731 7.76985 27.8002C8.12272 28.4273 8.29803 29.1173 8.29803 29.8702V31.6638L5.89538 32.7044V29.8725C5.89538 29.3712 5.74254 28.9644 5.43912 28.6543C5.1357 28.3441 4.73563 28.1868 4.24566 28.1868H4.04787C3.72422 28.1868 3.43878 28.2587 3.18705 28.4025C2.93533 28.5464 2.73979 28.7464 2.59594 29.0026C2.4521 29.2589 2.38018 29.5488 2.38018 29.8725V30.9311C2.38018 31.23 2.4521 31.5087 2.59594 31.7649C2.73979 32.0211 2.93308 32.2279 3.17806 32.383C3.42305 32.5381 3.67702 32.6167 3.93999 32.6167V35.0194L3.94448 35.0149ZM1.27212 36.6826C2.42063 36.9096 3.33764 36.9883 4.0254 36.9163C4.71315 36.8444 5.19638 36.6646 5.47733 36.3792C5.75827 36.0915 5.89762 35.7161 5.89762 35.2486V32.4527L8.30028 31.412V35.8397C8.30028 36.6893 8.02158 37.4175 7.46643 38.0266C6.91128 38.6357 6.1044 39.0268 5.04579 39.2021C3.98719 39.3752 2.7308 39.2763 1.27212 38.9054V36.6826ZM7.08209 32.6122V35.0149H3.9265V32.6122H7.08209ZM9.17908 32.6302V35.0329H8.04855V32.6302H9.17908Z" fill="white"/>
<path d="M14.135 32.6302V35.0329H8.91162V32.6302H14.135Z" fill="white"/>
<path d="M17.8122 32.6302V35.0329H13.7778V32.6302H17.8122Z" fill="white"/>
<path d="M21.487 32.6302V35.0329H17.4526V32.6302H21.487Z" fill="white"/>
<path d="M20.2505 34.6553V33.0235L21.2911 32.628V35.0306L20.2505 34.653V34.6553ZM21.6844 32.628C22.1744 32.628 22.5183 32.4999 22.7161 32.2436C22.9139 31.9874 23.0128 31.6323 23.0128 31.176V22.5521H25.3974V30.2276C25.3974 31.4457 25.1367 32.5515 24.6175 33.545C24.0983 34.5362 23.1072 35.0329 21.6507 35.0329H21.2731V32.6302H21.6844V32.628ZM26.3998 35.0306C25.7907 35.0306 25.2244 34.8396 24.7052 34.4575C24.186 34.0754 23.7724 33.5967 23.469 33.0235C23.1633 32.4504 23.0128 31.893 23.0128 31.3558L22.9948 22.5521H25.3794V31.176C25.3794 31.63 25.4806 31.9852 25.6851 32.2436C25.8874 32.4999 26.2403 32.628 26.7437 32.628H27.2809V35.0306H26.4021H26.3998Z" fill="white"/>
<path d="M31.0974 32.6302V35.0329H27.063V32.6302H31.0974Z" fill="white"/>
<path d="M34.7746 32.6302V35.0329H30.7402V32.6302H34.7746Z" fill="white"/>
<path d="M39.8651 25.8156C40.618 25.8156 41.3058 25.9954 41.9261 26.3528C42.5487 26.7101 43.0387 27.2023 43.396 27.8227C43.7556 28.4452 43.9332 29.1375 43.9332 29.9017V31.2637C43.9332 31.9335 43.7646 32.5583 43.432 33.1382C43.0971 33.718 42.6408 34.1788 42.061 34.5182C41.4811 34.8598 40.8518 35.0284 40.1685 35.0284H34.5743L33.5337 34.6508V33.0011L34.5743 32.6235H36.1701C36.0015 32.3852 35.8689 32.1223 35.7655 31.8346C35.6644 31.5469 35.6127 31.2435 35.6127 30.9198V29.8972C35.6127 29.133 35.7925 28.4385 36.1499 27.8182C36.5095 27.1978 36.9994 26.7056 37.6198 26.3483C38.2424 25.9886 38.9279 25.8111 39.6808 25.8111H39.8606L39.8651 25.8156ZM41.5508 29.9039C41.5508 29.569 41.4789 29.2768 41.335 29.0251C41.1912 28.7734 40.9911 28.5778 40.7349 28.434C40.4787 28.2902 40.1887 28.2182 39.8651 28.2182H39.6853C39.3616 28.2182 39.0762 28.2902 38.8245 28.434C38.5727 28.5778 38.3772 28.7756 38.2334 29.0251C38.0895 29.2768 38.0176 29.569 38.0176 29.9039V30.9266C38.0176 31.2367 38.0895 31.5222 38.2334 31.7784C38.3772 32.0346 38.5682 32.2414 38.8065 32.3965C39.0447 32.5515 39.3032 32.6302 39.5774 32.6302H39.937C40.2359 32.6302 40.5034 32.5583 40.7439 32.4144C40.9821 32.2706 41.1777 32.0773 41.326 31.8323C41.4766 31.5873 41.5508 31.3221 41.5508 31.0344V29.9039ZM39.8831 24.7974H38.2828V21.7924H41.2878V23.3927C40.7394 23.9411 40.4315 24.249 39.8831 24.7974Z" fill="white"/>
<path d="M55 28.4879V31.0344C55 31.5132 55.1461 31.8975 55.4383 32.1919C55.7305 32.4841 56.1171 32.6302 56.5958 32.6302H62.6373C63.152 32.6302 63.5071 32.5021 63.7049 32.2459C63.9026 31.9897 64.0015 31.6345 64.0015 31.1783V26.5528H66.3862V30.2276C66.3862 31.4457 66.1255 32.5515 65.6063 33.545C65.0871 34.5361 64.0914 35.0329 62.6215 35.0329H56.5958C55.8429 35.0329 55.1641 34.8598 54.5617 34.5137C53.9571 34.1675 53.4807 33.6888 53.1278 33.0797C52.7749 32.4706 52.5996 31.7896 52.5996 31.0367V28.4902H55.0023L55 28.4879ZM59.6075 40C59.2254 40 58.8928 39.8584 58.6119 39.5797C58.3309 39.2988 58.1916 38.9661 58.1916 38.584C58.1916 38.2019 58.3309 37.8738 58.6119 37.5973C58.8928 37.3231 59.2232 37.186 59.6075 37.186C59.9919 37.186 60.3223 37.3231 60.6032 37.5973C60.8842 37.8715 61.0235 38.2019 61.0235 38.584C61.0235 38.9661 60.8819 39.2988 60.6032 39.5797C60.3223 39.8606 59.9896 40 59.6075 40ZM67.3886 35.0329C66.7908 35.0329 66.2334 34.8418 65.7119 34.4597C65.1927 34.0776 64.7792 33.5989 64.4758 33.0258C64.1701 32.4527 64.0128 31.8953 64.0015 31.3581L63.9836 26.5528H66.3682V31.1783C66.3682 31.6323 66.4694 31.9874 66.6739 32.2459C66.8762 32.5021 67.229 32.6302 67.7325 32.6302H68.2697V35.0329H67.3909H67.3886Z" fill="white"/>
<path d="M71.9607 32.6302V35.0329H67.9263V32.6302H71.9607Z" fill="white"/>
<path d="M75.6374 32.6302V35.0329H71.603V32.6302H75.6374Z" fill="white"/>
<path d="M75.3858 32.6302V35.0329L74.3452 34.6553V33.0235L75.3858 32.628V32.6302ZM77.2873 32.6302C77.7885 32.6302 78.1369 32.5021 78.3279 32.2459C78.519 31.9897 78.6156 31.6345 78.6156 31.1783V26.5528H81.0183V30.2276C81.0183 31.4457 80.7553 32.5515 80.2294 33.545C79.7034 34.5361 78.7122 35.0329 77.2536 35.0329H75.3881V32.6302H77.2895H77.2873ZM77.4851 39.5325C77.103 39.5325 76.7726 39.3909 76.4984 39.1122C76.2242 38.8313 76.0871 38.4986 76.0871 38.1165C76.0871 37.7344 76.2242 37.404 76.4984 37.1298C76.7726 36.8556 77.1007 36.7185 77.4851 36.7185C77.8694 36.7185 78.2133 36.8556 78.4897 37.1298C78.7639 37.404 78.901 37.7322 78.901 38.1165C78.901 38.5009 78.7639 38.8313 78.4897 39.1122C78.2155 39.3931 77.8806 39.5325 77.4851 39.5325ZM82.0207 35.0329C81.4116 35.0329 80.8452 34.8418 80.326 34.4597C79.8068 34.0776 79.3933 33.5989 79.0898 33.0258C78.7842 32.4527 78.6336 31.8953 78.6336 31.3581L78.5976 26.5528H81.0003V31.1783C81.0003 31.6323 81.0992 31.9874 81.2969 32.2459C81.4947 32.5021 81.8431 32.6302 82.3466 32.6302H84.1042V35.0329H82.0252H82.0207ZM81.3217 39.5325C80.9396 39.5325 80.6069 39.3909 80.326 39.1122C80.0451 38.8313 79.9057 38.4986 79.9057 38.1165C79.9057 37.7344 80.0451 37.404 80.326 37.1298C80.6069 36.8556 80.9373 36.7185 81.3217 36.7185C81.706 36.7185 82.0364 36.8556 82.3173 37.1298C82.5983 37.404 82.7376 37.7322 82.7376 38.1165C82.7376 38.5009 82.596 38.8313 82.3173 39.1122C82.0364 39.3931 81.7038 39.5325 81.3217 39.5325Z" fill="white"/>
<path d="M87.7766 32.6302V35.0329H83.7422V32.6302H87.7766Z" fill="white"/>
<path d="M88.3385 32.6302V35.0329H87.417V32.6302H88.3385Z" fill="white"/>
<path d="M87.0845 34.6553V33.0235L88.1251 32.628V35.0306L87.0845 34.653V34.6553ZM102.163 25.9954V31.4457C102.163 32.0908 102.002 32.6886 101.68 33.2393C101.357 33.79 100.921 34.226 100.372 34.5474C99.8215 34.871 99.2236 35.0306 98.5785 35.0306C98.0639 35.0306 97.5986 34.9497 97.1806 34.7879C96.7625 34.6261 96.4029 34.4013 96.104 34.1159C95.7578 34.4395 95.3713 34.6777 94.9465 34.8328C94.5217 34.9879 94.0767 35.0666 93.6114 35.0666C93.1462 35.0666 92.7214 34.9902 92.3393 34.8328C91.9572 34.6777 91.5976 34.4373 91.2627 34.1159C90.9525 34.4035 90.5929 34.6261 90.1861 34.7879C89.7793 34.9497 89.35 35.0306 88.8938 35.0306H88.1408V32.628H88.9117C89.2579 32.628 89.5388 32.5201 89.7546 32.3043C89.9704 32.0885 90.0782 31.8143 90.0782 31.4795V27.8586H92.4629V31.4795C92.4629 31.8503 92.5663 32.1425 92.7776 32.3583C92.9888 32.574 93.2833 32.6819 93.6654 32.6819C94.0362 32.6931 94.3374 32.592 94.5711 32.3762C94.8049 32.1605 94.9217 31.8615 94.9217 31.4795V27.8586H97.3064V31.4795C97.3064 31.8368 97.421 32.1178 97.6481 32.3223C97.8751 32.5268 98.1852 32.628 98.5808 32.628C98.9157 32.628 99.1966 32.5156 99.4236 32.2863C99.6506 32.0593 99.7653 31.7784 99.7653 31.4435V25.9931H102.168L102.163 25.9954ZM93.8429 25.4582C93.4608 25.4582 93.1282 25.3189 92.8472 25.0379C92.5663 24.757 92.427 24.4266 92.427 24.0422C92.427 23.6579 92.5663 23.3455 92.8472 23.0646C93.1282 22.7836 93.4586 22.6443 93.8429 22.6443C94.2273 22.6443 94.5532 22.7859 94.8296 23.0646C95.1038 23.3455 95.2409 23.6714 95.2409 24.0422C95.2409 24.4131 95.1038 24.757 94.8296 25.0379C94.5554 25.3189 94.225 25.4582 93.8429 25.4582ZM95.7961 22.4824C95.414 22.4824 95.0813 22.3431 94.8004 22.0621C94.5194 21.7812 94.3801 21.4508 94.3801 21.0665C94.3801 20.6821 94.5194 20.3517 94.8004 20.0708C95.0813 19.7898 95.4117 19.6505 95.7961 19.6505C96.1804 19.6505 96.5108 19.7921 96.7917 20.0708C97.0727 20.3517 97.212 20.6844 97.212 21.0665C97.212 21.4486 97.0704 21.7812 96.7917 22.0621C96.513 22.3431 96.1781 22.4824 95.7961 22.4824ZM97.6256 25.4582C97.2435 25.4582 96.9108 25.3189 96.6299 25.0379C96.349 24.757 96.2074 24.4266 96.2074 24.0422C96.2074 23.6579 96.349 23.3455 96.6299 23.0646C96.9108 22.7836 97.2412 22.6443 97.6256 22.6443C98.0099 22.6443 98.3403 22.7859 98.6213 23.0646C98.9022 23.3455 99.0438 23.6714 99.0438 24.0422C99.0438 24.4131 98.9022 24.757 98.6213 25.0379C98.3403 25.3189 98.0099 25.4582 97.6256 25.4582Z" fill="white"/>
</svg>
