<svg width="55" height="22" viewBox="0 0 55 22" fill="none" xmlns="http://www.w3.org/2000/svg">
<g clip-path="url(#clip0_3_612)">
<path d="M0.271115 2.01618C0.0922739 2.41235 0.00121403 2.83742 0.000606962 3.09833C-0.000121515 3.35925 0.00485646 3.44958 0.0127483 3.53845C0.0133554 3.54489 0.0144482 3.5512 0.0150553 3.55764C0.120806 4.68532 0.795982 5.46309 1.447 6.02972C2.09801 6.59636 2.85684 7.05044 3.52498 7.45875C3.74449 7.59291 3.95138 7.72246 4.12172 7.84266C4.29206 7.96286 4.3745 8.13369 4.37462 8.31435C4.37475 8.64229 4.10873 8.90818 3.78079 8.90818H0V11.8776H5.34483C6.786 11.8776 8.08585 11.0823 8.63694 9.86151C8.81578 9.46534 8.90684 9.04028 8.90745 8.77936C8.90818 8.51844 8.9032 8.42811 8.89531 8.33924C8.8947 8.3328 8.89361 8.32649 8.893 8.32006C8.78725 7.19237 8.11207 6.4146 7.46106 5.84797C6.81004 5.28134 6.05121 4.82725 5.38308 4.41894C5.16356 4.28478 4.95668 4.15523 4.78633 4.03503C4.61599 3.91483 4.53355 3.74401 4.53343 3.56334C4.53331 3.23541 4.79933 2.96951 5.12726 2.96951H10.6895V11.8776H14.2528V2.96951H16.6282V11.8776H20.1914V2.96951H21.3792C22.0352 2.96951 22.567 3.23541 22.567 3.56334V11.8775H26.1302V2.96939C26.1302 1.32947 24.535 0 22.567 0H3.56322C2.12205 0.000121413 0.822208 0.795497 0.271115 2.01618Z" fill="#BA52EE"/>
<path d="M31.4751 6.10352e-05C30.0339 6.10352e-05 28.7341 0.795194 28.183 2.016C28.0041 2.41217 27.9131 2.83724 27.9125 3.09815C27.9117 3.35907 27.9167 3.4494 27.9246 3.53827C27.9252 3.54471 27.9263 3.55102 27.9269 3.55746C28.0327 4.68514 28.7078 5.46291 29.3589 6.02954C30.0099 6.59618 30.7687 7.05026 31.4368 7.45857C31.6564 7.59273 31.8632 7.72228 32.0336 7.84248C32.2039 7.96268 32.2864 8.13363 32.2865 8.31429C32.2866 8.64223 32.0206 8.90812 31.6927 8.90812H26.1304V11.8775H33.2568C34.698 11.8775 35.9978 11.0824 36.5489 9.86157C36.7278 9.4654 36.8188 9.04034 36.8194 8.77942C36.82 8.51851 36.8152 8.42817 36.8073 8.3393C36.8067 8.33286 36.8056 8.32655 36.805 8.32012C36.6992 7.19243 36.0241 6.41466 35.373 5.84803C34.722 5.2814 33.9632 4.82731 33.2951 4.419C33.0755 4.28484 32.8687 4.15529 32.6983 4.03509C32.528 3.91489 32.4455 3.74395 32.4454 3.56328C32.4453 3.23535 32.7113 2.96945 33.0392 2.96945H39.9702C39.0909 3.94828 38.6036 5.21693 38.6015 6.53268C38.6015 9.48459 40.9945 11.8775 43.9464 11.8775C45.2621 11.8752 46.5309 11.3877 47.5096 10.5082V11.8775H51.0728V0.000181455L31.4751 6.10352e-05ZM42.7586 2.96933H47.5095V7.72022L46.0248 6.23558L43.7979 8.46253L41.8678 6.53243L44.0947 4.30548L42.7586 2.96933Z" fill="#FF6600"/>
<path d="M52.2603 10.7261C52.2603 10.0393 52.8168 9.57574 53.448 9.57574C54.0797 9.57574 54.6358 10.0393 54.6358 10.7261C54.6358 11.413 54.0797 11.877 53.448 11.877C52.8168 11.877 52.2603 11.413 52.2603 10.7261ZM53.454 10.5962C53.6563 10.5962 53.7133 10.4905 53.7133 10.3981C53.7133 10.2869 53.6563 10.2004 53.454 10.2004H53.1961V10.5962H53.454ZM53.1962 10.7751V11.4065H52.9874V10.0145H53.5051C53.8078 10.0145 53.9477 10.1444 53.9477 10.398C53.9477 10.5531 53.8397 10.6772 53.7014 10.6949V10.7009C53.8205 10.7197 53.8648 10.8254 53.8906 11.0172C53.9098 11.1401 53.9345 11.3571 53.9793 11.4065H53.7326C53.6756 11.2766 53.6821 11.0912 53.6378 10.9365C53.6004 10.8189 53.5369 10.7749 53.3981 10.7749L53.1962 10.7751ZM54.4082 10.7261C54.4082 10.1692 54.0045 9.76102 53.448 9.76102C52.892 9.76102 52.4879 10.1692 52.4879 10.7261C52.4879 11.2831 52.8921 11.6908 53.448 11.6908C54.0045 11.6908 54.4082 11.2831 54.4082 10.7261Z" fill="#FF6600"/>
<path d="M26.13 19.8986V14.2527H29.3599V14.6739H26.6626V16.7555H29.2457V17.1767H26.6626V19.4759H29.4803V19.8978H26.1299L26.13 19.8986Z" fill="#BA52EE"/>
<path d="M29.8662 19.8986L31.4413 17.871L29.9474 15.9531H30.5529L31.7724 17.5201L32.9673 15.9531H33.5728L32.0552 17.871L33.6372 19.8986H33.024L31.7157 18.2212L30.4724 19.8986H29.8662Z" fill="#BA52EE"/>
<path d="M34.6619 21.3791H34.1691V17.1307C34.1691 16.7407 34.1691 16.3439 34.1445 15.953H34.6297L34.6458 16.546C34.9517 16.0775 35.3556 15.8598 35.962 15.8598C37.2213 15.8598 37.7617 16.8651 37.7617 17.9252C37.7617 18.9867 37.2213 19.992 35.962 19.992C35.3963 19.992 34.9525 19.7817 34.662 19.3287L34.6619 21.3791ZM37.2373 17.9252C37.2373 17.0835 36.8732 16.2566 35.9051 16.2566C34.993 16.2566 34.6619 16.982 34.6619 17.9252C34.6619 18.869 34.993 19.5937 35.9051 19.5937C36.8739 19.5937 37.2373 18.7675 37.2373 17.9252Z" fill="#BA52EE"/>
<path d="M40.294 16.3189C39.4785 16.3189 39.1948 16.9821 39.1948 17.6676V19.8987H38.702V17.1139C38.702 16.7319 38.6944 16.3433 38.6782 15.9532H39.1642L39.1957 16.5225C39.4379 16.0709 39.8426 15.8599 40.383 15.8599C40.4558 15.8599 40.5363 15.8673 40.609 15.8755V16.3514C40.4956 16.3344 40.4067 16.3189 40.294 16.3189Z" fill="#BA52EE"/>
<path d="M41.2126 18.011C41.2126 18.8992 41.648 19.6321 42.544 19.6321C43.2376 19.6321 43.5612 19.188 43.6823 18.7438H44.1506C43.9321 19.5699 43.407 19.9918 42.4788 19.9918C41.2355 19.9918 40.686 19.1029 40.686 17.9962C40.686 16.8658 41.2593 15.8598 42.5433 15.8598C43.8433 15.8598 44.1905 16.9583 44.1905 18.011H41.2126ZM41.228 17.6527H43.6662C43.6662 16.8806 43.2875 16.2181 42.5118 16.2181C41.8097 16.2181 41.3245 16.7319 41.228 17.6527Z" fill="#BA52EE"/>
<path d="M46.1131 19.992C45.2738 19.992 44.6445 19.6093 44.6445 18.744H45.1373C45.1373 19.3361 45.5406 19.6322 46.1384 19.6322C46.6957 19.6322 47.1309 19.3746 47.1309 18.8461C47.1309 18.3701 46.6227 18.245 46.0901 18.097C45.4446 17.9179 44.7418 17.7224 44.7418 16.9585C44.7418 16.1094 45.4761 15.8599 46.1628 15.8599C46.9531 15.8599 47.5433 16.1553 47.5671 16.974H47.0742C47.0504 16.5069 46.7032 16.2419 46.1782 16.2419C45.7666 16.2419 45.266 16.3973 45.266 16.9118C45.266 17.3804 45.7665 17.513 46.2993 17.6528C46.9462 17.8238 47.6559 18.0111 47.6559 18.7758C47.6554 19.664 46.9455 19.992 46.1131 19.992Z" fill="#BA52EE"/>
<path d="M49.5289 19.992C48.6889 19.992 48.0596 19.6093 48.0596 18.744H48.5524C48.5524 19.3361 48.9556 19.6322 49.5542 19.6322C50.1114 19.6322 50.5467 19.3746 50.5467 18.8461C50.5467 18.3701 50.0377 18.245 49.505 18.097C48.8596 17.9179 48.1576 17.7224 48.1576 16.9585C48.1576 16.1094 48.8919 15.8599 49.5786 15.8599C50.3688 15.8599 50.959 16.1553 50.9828 16.974H50.49C50.4662 16.5069 50.119 16.2419 49.594 16.2419C49.1824 16.2419 48.6818 16.3973 48.6818 16.9118C48.6818 17.3804 49.1823 17.513 49.7158 17.6528C50.3619 17.8238 51.0724 18.0111 51.0724 18.7758C51.0711 19.664 50.3605 19.992 49.5289 19.992Z" fill="#BA52EE"/>
</g>
<defs>
<clipPath id="clip0_3_612">
<rect width="55" height="21.3793" fill="white"/>
</clipPath>
</defs>
</svg>
